<svg xmlns="http://www.w3.org/2000/svg" width="151" height="150" fill="none" xmlns:v="https://vecta.io/nano"><path d="M112.244 83.487l1.469 1.708c.25.27.442.552.567.9.094.27.211.531.348.781.119.217.253.463.545.463.344-.001.461-.298.587-.551.098-.189.186-.392.223-.602.23-1.37.955-2.366 2.172-3.028.186-.1.356-.248.511-.394.401-.389.442-.821.044-1.222-.297-.301-.657-.558-1.035-.754a2.43 2.43 0 0 1-1-.94l-.487-.837c-.353-.587-.851-1.038-1.382-1.511-.154.115-.283.175-.376.273-.577.606-1.025 1.296-1.269 2.1-.19.639-.564 1.148-1.097 1.543l-.494.41c-.278.282-.288.56-.033.861l.708.801-.001-.001z" fill="#111"/><path d="M113.641 82.975l.771.897a1.36 1.36 0 0 1 .298.472 2.55 2.55 0 0 0 .183.41c.062.114.133.243.286.243.181 0 .242-.157.308-.289.051-.099.098-.206.117-.316a2.12 2.12 0 0 1 1.14-1.59c.098-.053.187-.13.268-.207.211-.204.232-.431.023-.642-.156-.158-.345-.293-.544-.396a1.28 1.28 0 0 1-.525-.493l-.256-.439c-.185-.308-.447-.545-.726-.793-.081.061-.149.092-.198.143-.303.318-.538.68-.666 1.102-.1.335-.296.603-.576.81l-.259.215c-.146.148-.151.294-.017.452l.373.421zM87.354 64.5l-29-29.5 35.5 26.5-2 11-4.5-8z" fill="#1bdbdb"/><path d="M112.943 54.667L55.498 31.056a.75.75 0 0 0-.991.948l16.982 47.157a.75.75 0 0 0 .543.478c.078.017.157.022.235.014a.75.75 0 0 0 .46-.218l11.619-11.69 7.158 4.912c.031.021.066.029.099.045a.72.72 0 0 0 .555.118.75.75 0 0 0 .601-.63l1.554-10.854 18.55-5.254a.75.75 0 0 0 .081-1.415zm-40.444 22.87L56.844 34.065l29.693 29.349-14.038 14.123zm14.583-12.543l2.662 4.638-4.323-2.967 1.661-1.671zm4.501 4.829l-3.689-6.428a.74.74 0 0 0-.182-.195c-.02-.031-.034-.064-.061-.091l-26.749-26.44 31.974 24.129-1.292 9.025zm1.909-9.812L59.396 34.28l50.973 20.951-16.877 4.78z" fill="#000"/><path d="M30.935 30.865l-2.923-2.767 4.566-1.238 2.094-3.642 1.961 3.778 4.732.739-3.361 3.367.42 4.771-4.102-2.226-4.242 1.946.855-4.728h-.002zm82.467-13.315c.027-.801-.616-1.473-1.437-1.5s-1.509.599-1.535 1.4.616 1.472 1.437 1.5 1.509-.599 1.535-1.4z" fill="#1bdbdb"/><path d="M112.639 19.546c.34-.045.594-.267.687-.461.373-.204.434-.397.558-.706.08-.244.204-.611.173-.909-.145-.287-.03-.729-.145-.947-.156-.35-.302-.437-.476-.712-.213-.155-.517-.285-.788-.413-.368-.09-.554-.156-.823-.32-.235.033-.495.127-.864.195-.285.139-.501.307-.791.428-.028.069-.399.31-.514.639-.15.267-.154.666-.218.974-.042.326.025.721.167.98.113.203.258.451.455.679.245.286.534.431.776.559.268.12.564.191.834.173.334.001.658-.046.969-.162v.002zm-.928-1.097c-.318-.076-.57.028-.736-.335-.243-.266-.322-.652-.284-.758.12-.305.051-.609.334-.737.262-.205.444-.382.757-.285.27.031.498.084.736.335.184.242.3.48.284.758-.022.366-.137.468-.334.737-.146.165-.505.351-.757.285zm3.633 16.704a.62.62 0 0 0-.265.389.19.19 0 0 0-.048.116.44.44 0 0 0 .022.157l-.014.373c-.005.097.022.194.076.275-.038.079-.059.166-.06.254l.001.528c-.008.263.022.264.013.528s-.077.262-.084.526a1.49 1.49 0 0 0 .019.313.33.33 0 0 0-.075.213c-.009.263.157.265.023.492a.62.62 0 0 1-.169.214.75.75 0 0 0-.243.099l-.48.272a2.27 2.27 0 0 1-.336.17c-.059.008-.117.029-.167.061a.34.34 0 0 0-.113.113c-.097.089-.2.169-.31.242s-.214.151-.313.237a.47.47 0 0 0-.145.064.52.52 0 0 0-.165.151c-.084.072-.172.137-.265.195a1.55 1.55 0 0 0-.23.171c-.085.024-.166.061-.24.11a.46.46 0 0 0-.198.257c-.035.054-.052.117-.045.182l.059-.007c.007.07.035.137.078.194.019.136.055.265.168.301.261.084.288.002.549.087a.57.57 0 0 0 .295.02.59.59 0 0 0 .235.132c.261.084.273.044.535.128a.88.88 0 0 1 .278.146c.055.063.127.109.208.132.261.084.252.111.513.195.255.081.296-.021.541.052l.016.005c.261.084.344-.04.537.154a.28.28 0 0 1 .102.238c-.041.096-.052.202-.029.304.074.254.035.265.108.519s.196.218.27.471.121.239.194.492-.021.28.053.534l.162.502c.023.086.055.169.092.249a.39.39 0 0 0-.019.277c.018.043.045.081.081.111a.28.28 0 0 0 .125.059.35.35 0 0 0 .094.104.34.34 0 0 0 .127.06c.061.008.122.003.18-.016a.41.41 0 0 0 .155-.094c.048-.017.09-.046.122-.085.168-.209.092-.275.254-.48l.006-.008c.172-.21.296-.109.467-.319a.7.7 0 0 0 .083-.124l.244-.308.178-.232a.5.5 0 0 0 .2-.156c.127-.157.096-.248.143-.371a1.01 1.01 0 0 1 .093-.134l.06-.077c.14-.114.263-.057.409-.237.17-.209.047-.286.293-.396l.233-.104c.078.065.176.102.277.108.279.006.278.034.557.042a.41.41 0 0 0 .262-.078.58.58 0 0 0 .294.083.47.47 0 0 0 .294-.09.48.48 0 0 0 .262.077.76.76 0 0 0 .379-.12l.179.009a1.57 1.57 0 0 0 .168-.003c.126.053.177.151.384.157.277.007.279-.1.556-.093.088.008.176-.008.256-.047s.146-.099.193-.173c.009-.029.012-.059.008-.089s-.016-.058-.032-.083c.015-.014.028-.032.037-.052s.011-.042.01-.063c-.006-.034-.026-.065-.055-.085.035-.071.085-.149.053-.192-.156-.213-.286-.119-.442-.332-.141-.192-.041-.297-.13-.47a.5.5 0 0 0-.038-.063c-.005-.006-.01-.01-.015-.017-.146-.191-.236-.138-.387-.344-.155-.212-.092-.26-.247-.473-.116-.158-.218-.145-.328-.215a1.08 1.08 0 0 0-.087-.136c-.065-.09-.114-.193-.141-.301a.47.47 0 0 0-.087-.185c-.042-.054-.088-.093-.146-.121-.097-.066-.174-.086-.197-.268-.033-.262.163-.21.261-.456s-.003-.286.095-.532a1.01 1.01 0 0 1 .081-.162 1.27 1.27 0 0 0 .178-.303l.217-.481.213-.475.175-.506a1.25 1.25 0 0 0 .082-.312c.059-.042.105-.102.13-.17.043-.109-.025-.214-.111-.311a.99.99 0 0 0-.118-.154c-.12-.131-.252-.256-.422-.205l-.314.11a.43.43 0 0 0-.233.01.95.95 0 0 0-.3.151l-.217.063a.63.63 0 0 0-.224.112 2.1 2.1 0 0 1-.292.108c-.266.08-.297-.023-.563.056s-.253.122-.52.202l-.534.153c-.261.078-.263.254-.523.214l-.011-.001a.64.64 0 0 1-.135-.038c-.136-.057-.163-.149-.335-.279-.218-.165-.108-.312-.326-.477a.41.41 0 0 0-.169-.082 1.82 1.82 0 0 0-.264-.252c-.217-.165-.279-.082-.497-.248s-.172-.225-.39-.39l-.317-.231c-.027-.048-.062-.09-.106-.123a.36.36 0 0 0-.149-.065l-.312-.22a.66.66 0 0 0-.272-.118.65.65 0 0 0-.296.016zm1.506 2.1c.056.045.121.078.191.097a1.99 1.99 0 0 1 .267.172 1.47 1.47 0 0 0 .232.148.8.8 0 0 0 .179.18l.244.196a.65.65 0 0 0 .152.153c.209.159.245.112.455.271a.37.37 0 0 0 .155.07c.084.086.172.17.267.142.254-.076.228-.159.482-.235.093-.026.178-.077.243-.147.087.014.176.006.259-.021.254-.076.242-.116.495-.192a.8.8 0 0 1 .3-.035.41.41 0 0 0 .238-.006c.253-.076.261-.048.514-.124.243-.073.287-.414.457-.276.007.005.013.007.02.015.178.175-.073.245-.166.477-.034.089-.077.175-.126.257a.36.36 0 0 0-.137.177c-.093.232-.13.217-.223.449s.026.278-.066.509-.047.25-.14.482-.183.195-.275.426a.49.49 0 0 0 .071.457c.049.069.105.133.165.193-.011.092.014.184.07.258a.42.42 0 0 0 .217.158.88.88 0 0 0 .119.219 1.39 1.39 0 0 0 .241.245.73.73 0 0 0 .084.14c.145.199.229.144.373.336l.006.007c.149.202.018.298.166.5.089.091.197.162.317.206.03.031.035.072-.008.146s-.079.091-.118.095c-.102-.053-.223-.172-.379-.176-.198-.005-.249.076-.374.114a1.05 1.05 0 0 1-.159.008h-.096c-.173-.041-.202-.173-.43-.178l-.529-.002a.49.49 0 0 0-.282.077c-.075-.047-.16-.07-.248-.07-.264-.007-.263-.034-.528-.041-.076-.002-.133.062-.185.138-.048-.007-.097-.003-.144.011a.34.34 0 0 0-.127.071c-.064.078-.099.175-.098.276-.083.027-.157.079-.21.148-.118.146-.087.24-.122.357l-.109.128c-.034.041-.065.083-.094.127-.115.062-.221.04-.343.191-.164.203-.081.269-.245.472s-.199.175-.364.377c-.1.124-.101.303-.146.412-.05.02-.105.023-.158.011-.028-.001-.054-.01-.079-.023s-.045-.032-.061-.056a2.18 2.18 0 0 0 .061-.41c.001-.054-.011-.107-.032-.157s-.053-.094-.093-.131a2.07 2.07 0 0 1-.074-.203c-.019-.075-.054-.144-.103-.204a1.78 1.78 0 0 1-.099-.267c-.071-.244.032-.274-.039-.518s-.113-.232-.184-.477l-.136-.49c-.027-.068-.071-.128-.128-.174a.44.44 0 0 0-.196-.093l-.005-.002-.124-.036c-.133-.035-.181-.033-.375-.097-.247-.079-.191-.253-.437-.332a.38.38 0 0 0-.177-.017 1.52 1.52 0 0 0-.313-.144c-.245-.079-.276.02-.521-.059s-.223-.151-.467-.229c-.176-.056-.306.055-.38.03a.65.65 0 0 1-.023-.116.58.58 0 0 1-.005-.125c.063-.044.207.016.36-.081.219-.138.247-.094.465-.231a2.83 2.83 0 0 0 .309-.24.36.36 0 0 0 .118-.049.39.39 0 0 0 .115-.103l.307-.192a.43.43 0 0 0 .181-.214.56.56 0 0 0 .239-.089l.426-.29a.5.5 0 0 0 .147-.175c.035-.069.052-.145.05-.223.008-.254.077-.252.085-.505.004-.101-.003-.202-.02-.302a.32.32 0 0 0 .075-.205c.008-.254-.022-.255-.015-.508.005-.097-.012-.194-.048-.284l.012-.224c.008-.253.034-.252.041-.506.006-.177-.105-.266-.093-.336.033-.026.071-.047.111-.062a.76.76 0 0 1 .126-.044c.075.033.07.175.222.291a2.55 2.55 0 0 0 .319.201.47.47 0 0 0 .108.11v-.003zm-17.514-13.12a.75.75 0 0 0-.192-.22c-.157-.122-.356-.175-.553-.15a.75.75 0 0 0-.498.285l-7.324 9.493a.75.75 0 0 0 .128 1.061.75.75 0 0 0 1.059-.145l7.324-9.493a.75.75 0 0 0 .057-.831zm4.738 13.407a.75.75 0 0 0-1.055-.898l-6.456 3.3a.75.75 0 0 0-.323 1.007.75.75 0 0 0 1.006.328l6.456-3.3a.75.75 0 0 0 .372-.437zM85.498 20.82a.75.75 0 0 0-1.021.287.75.75 0 0 0-.091.278l-1.003 8.385a.74.74 0 0 0 .023.292.75.75 0 0 0 .925.519.75.75 0 0 0 .542-.633l1.002-8.385a.75.75 0 0 0-.377-.743zM34.039 57.909a.75.75 0 0 0 .016.292.74.74 0 0 0 .127.263.75.75 0 0 0 .786.276l11.612-2.985a.77.77 0 0 0 .27-.123.75.75 0 0 0 .157-1.062.75.75 0 0 0-.801-.268l-11.612 2.985a.75.75 0 0 0-.556.621zm4.427-13.062a.75.75 0 0 0 .342 1.343l7.176 1.032a.75.75 0 1 0 .214-1.485l-7.176-1.032a.75.75 0 0 0-.556.142zm3.601 23.677a.75.75 0 0 0 .925.518.75.75 0 0 0 .261-.133l6.631-5.229a.75.75 0 0 0 .124-1.054.75.75 0 0 0-.501-.28c-.098-.011-.197-.004-.292.023a.75.75 0 0 0-.261.133l-6.631 5.229a.75.75 0 0 0-.257.793zm-15.26-40.562a.74.74 0 0 0 .116.553.22.22 0 0 0 .061.136c.044.047.096.084.153.112l.31.321a.54.54 0 0 0 .302.162.7.7 0 0 0 .17.264l.459.437c.221.226.246.2.468.426s.163.284.384.509a1.9 1.9 0 0 0 .287.243.41.41 0 0 0 .121.241c.22.226.36.084.446.387a.75.75 0 0 1 .045.325.95.95 0 0 0-.117.292l-.162.64a2.77 2.77 0 0 1-.131.432.47.47 0 0 0-.085.196.4.4 0 0 0 .004.191c-.004.157-.02.315-.049.47a3.48 3.48 0 0 0-.054.468.61.61 0 0 0-.065.18.67.67 0 0 0-.006.268 2.73 2.73 0 0 1-.05.392 2.05 2.05 0 0 0-.043.341 1.03 1.03 0 0 0-.104.299.56.56 0 0 0 .057.384.33.33 0 0 0 .12.189l.042-.057a.46.46 0 0 0 .233.093c.132.096.274.172.4.105.289-.156.24-.248.531-.404.107-.054.197-.137.261-.238a.71.71 0 0 0 .309-.094c.289-.156.266-.2.555-.356a1.04 1.04 0 0 1 .356-.12.53.53 0 0 0 .288-.07c.289-.156.305-.126.595-.282.282-.153.227-.274.494-.425l.018-.009c.288-.156.251-.332.579-.337.053-.006.108.001.158.019s.095.049.132.088c.048.116.132.214.239.277.281.147.259.19.539.336s.351.012.631.158.308.093.587.239.226.251.506.397l.568.276a1.84 1.84 0 0 0 .292.126.47.47 0 0 0 .224.248c.052.021.108.029.163.022a.33.33 0 0 0 .154-.059.43.43 0 0 0 .168.005.42.42 0 0 0 .157-.061.48.48 0 0 0 .182-.382.33.33 0 0 0 .027-.175c-.04-.319-.162-.309-.203-.618l-.002-.012c-.041-.323.151-.347.111-.67a.86.86 0 0 0-.039-.174l-.064-.466-.052-.347a.61.61 0 0 0 .03-.303c-.03-.24-.135-.289-.203-.432a1.2 1.2 0 0 1-.039-.191l-.017-.117c.017-.216.168-.275.134-.552-.04-.32-.209-.276-.1-.582l.104-.289a.57.57 0 0 0 .323-.15l.497-.448c.082-.077.134-.18.15-.291.12-.033.229-.097.315-.187a.59.59 0 0 0 .166-.331.57.57 0 0 0 .283-.163c.107-.122.18-.269.21-.428l.156-.148.136-.148c.151-.066.278-.028.454-.203.236-.234.145-.325.381-.559a.58.58 0 0 0 .181-.57c-.017-.032-.041-.059-.07-.08a.24.24 0 0 0-.099-.041c.001-.026-.004-.051-.014-.076s-.026-.045-.046-.062c-.035-.022-.078-.031-.118-.023-.033-.088-.059-.196-.123-.205-.315-.043-.34.15-.654.107-.282-.038-.29-.211-.515-.276a.5.5 0 0 0-.085-.02c-.01-.001-.017-.001-.026-.001-.287-.031-.315.09-.62.049-.313-.042-.301-.136-.613-.179-.232-.031-.307.069-.458.106-.062-.016-.126-.028-.19-.036a1.07 1.07 0 0 1-.378-.128.56.56 0 0 0-.233-.079.47.47 0 0 0-.226.025c-.138.029-.219.081-.397-.051-.255-.19-.045-.315-.177-.603s-.25-.235-.382-.523a1.15 1.15 0 0 1-.073-.205 1.53 1.53 0 0 0-.114-.406l-.236-.586-.234-.578-.293-.571c-.054-.118-.122-.229-.203-.33a.43.43 0 0 0-.039-.253c-.058-.128-.206-.156-.361-.161a1.13 1.13 0 0 0-.231-.026c-.213-.005-.431.007-.528.196l-.165.362a.51.51 0 0 0-.184.21 1.12 1.12 0 0 0-.118.385l-.126.24a.76.76 0 0 0-.089.285 2.6 2.6 0 0 1-.149.343c-.152.296-.266.237-.418.534s-.105.321-.257.618l-.311.589c-.149.291.002.438-.248.63l-.011.009a.78.78 0 0 1-.144.085c-.162.071-.264.018-.52.059-.324.051-.359-.165-.684-.113a.51.51 0 0 0-.211.079 2.13 2.13 0 0 0-.437.019c-.323.051-.303.173-.626.224s-.337-.037-.661.014l-.464.084a.44.44 0 0 0-.194-.011c-.064.011-.126.037-.18.075l-.449.088a.78.78 0 0 0-.559.407l.002.005zm3.065.438a.61.61 0 0 0 .243-.087 2.4 2.4 0 0 1 .369-.088 1.77 1.77 0 0 0 .321-.078.94.94 0 0 0 .304-.006l.372-.048c.086.013.174.011.259-.005.312-.049.3-.119.612-.169a.44.44 0 0 0 .191-.077c.143-.001.289-.007.343-.113.145-.282.052-.329.197-.612a.63.63 0 0 0 .074-.333.67.67 0 0 0 .196-.242c.145-.282.1-.305.244-.587a.95.95 0 0 1 .219-.288.49.49 0 0 0 .192-.212c.145-.282.175-.266.32-.548.138-.27-.12-.591.14-.625.01-.001.017-.004.028-.004.299-.01.151.265.275.539a1.94 1.94 0 0 1 .117.322c-.015.091-.001.183.039.264.124.272.079.293.203.565s.262.209.386.48.178.247.302.519.016.321.14.592a.59.59 0 0 0 .456.317c.101.015.202.02.304.017a.43.43 0 0 0 .281.154.5.5 0 0 0 .316-.056 1.02 1.02 0 0 0 .289.078 1.62 1.62 0 0 0 .411-.005.94.94 0 0 0 .191.043c.293.039.315-.081.6-.045h.011c.298.04.272.231.57.271a1.03 1.03 0 0 0 .442-.103c.052 0 .092.028.119.128.025.092.014.145-.016.181-.131.044-.333.051-.465.181-.169.167-.142.279-.212.418a1.15 1.15 0 0 1-.126.145l-.08.082c-.179.115-.317.031-.511.224l-.44.456a.58.58 0 0 0-.167.309c-.102.026-.194.079-.266.155-.225.224-.249.2-.473.423-.064.064-.058.167-.034.275-.046.037-.084.082-.11.134a.41.41 0 0 0-.044.168.51.51 0 0 0 .158.313.52.52 0 0 0-.046.305c.029.224.136.276.208.402l.019.201.033.186c-.041.151-.15.224-.12.455.04.309.166.294.206.603s-.014.317.025.627c.024.19.178.339.235.468a.31.31 0 0 1-.121.145.22.22 0 0 1-.086.049c-.032.01-.066.012-.099.007a2.65 2.65 0 0 0-.305-.393.47.47 0 0 0-.353-.131c-.081-.029-.16-.064-.237-.104s-.171-.072-.263-.079c-.108-.038-.212-.083-.314-.137-.269-.141-.211-.255-.48-.396s-.295-.094-.565-.235l-.537-.289a.53.53 0 0 0-.5.059l-.006.002-.134.078c-.142.086-.178.129-.396.246-.272.147-.377-.046-.649.101a.45.45 0 0 0-.162.139 1.88 1.88 0 0 0-.384.152c-.271.147-.213.255-.484.402s-.315.069-.587.214c-.194.105-.207.31-.287.354-.042-.021-.082-.047-.12-.076a.88.88 0 0 1-.113-.1c.014-.091.185-.166.229-.38.062-.303.123-.291.185-.594.026-.154.042-.31.048-.466a.44.44 0 0 0 .056-.144.49.49 0 0 0 .006-.185l.089-.425a.52.52 0 0 0-.036-.332c.062-.083.104-.179.122-.28l.102-.609a.58.58 0 0 0-.18-.501c-.213-.217-.154-.275-.368-.493a1.79 1.79 0 0 0-.277-.233c-.01-.089-.05-.172-.115-.235-.213-.217-.239-.191-.451-.408a.81.81 0 0 0-.287-.193l-.184-.196c-.213-.217-.191-.239-.403-.455-.148-.152-.317-.13-.37-.199a.54.54 0 0 1 .038-.147.93.93 0 0 1 .067-.147c.091-.037.21.085.435.05a3.18 3.18 0 0 0 .44-.11.55.55 0 0 0 .184-.001h.001zm-1.766 46.211c-.012.026-.201.129-.094.005-.324.003-.611-.044-.642-.586-.104-.297.297-.714.593-.678l1.702-.129a.62.62 0 0 0 .572-.675l-.021-.177c-.146-.864-.13-1.645 0-1.738.064-.238.159-.616.644-.632.341.106.539.38.644.632.096.078.005.761 0 1.744-.024.384.325.694.713.637.825-.119 1.492-.256 1.445-.084a.72.72 0 0 1 .263.033c.084.027.161.069.226.124a.58.58 0 0 1 .151.195.52.52 0 0 1 .05.232c-.055.503-.007.587-.593.678l-1.714.096a.62.62 0 0 0-.561.629l.021.68v1.737c-.15.328-.419.797-.644.633-.502-.299-.7-.153-.644-.633v-1.737l-.012-.414a.62.62 0 0 0-.667-.614l-1.434.043zm29.421 2.555c.053-.055.135-.037.22-.007h.001a.34.34 0 0 1 .204-.002.37.37 0 0 1 .278.253l.043.302c.071.069.119.161.133.261l.095.579c.051.288-.149.325-.099.614a.6.6 0 0 0 .139.299.47.47 0 0 1 .115.247.76.76 0 0 1-.064.382.29.29 0 0 0 .002.127.3.3 0 0 0 .056.114c.14.203.237.145.46.252s.295-.039.517.068c.165.079.171.176.253.263.048.015.095.034.14.057l.433.236c.222.108.267.014.489.122l.191.1a.95.95 0 0 1 .266.087.5.5 0 0 1 .166.165.51.51 0 0 1 .074.224.54.54 0 0 1-.071.233.57.57 0 0 1-.164.181.59.59 0 0 1-.25.068 1.03 1.03 0 0 1-.263.177c-.083.042-.178.055-.268.035a1.01 1.01 0 0 1-.26.176l-.519.228c-.255.125-.225.188-.479.312-.191.093-.285.023-.389.08l-.092.126a.59.59 0 0 0-.097.182c.003.088.059.163.038.34-.007.083-.039.163-.09.23l-.05.327-.038.472c0 .032-.002.064-.006.095-.034.281.03.289-.003.57l-.066.564c-.005.051-.155.044-.225.068l-.02.028c-.042.059.003.215-.067.24a.17.17 0 0 1-.093.001c-.03-.008-.058-.025-.078-.049-.051-.04-.098-.097-.146-.145l-.045-.042c-.153-.107-.28-.009-.441-.165-.177-.171-.096-.258-.272-.429s-.237-.109-.414-.28a.68.68 0 0 1-.118-.145.79.79 0 0 1-.264-.167c-.176-.172-.136-.214-.313-.385-.053-.053-.1-.111-.141-.174a.52.52 0 0 0-.212-.087l-.222-.057c-.08.012-.142.052-.313.078a.51.51 0 0 1-.246-.015l-.333.061-.304.061a.41.41 0 0 1-.253.137c-.286.044-.292-.002-.578.043l-.331.055a.69.69 0 0 1-.237.076c-.018.002-.036-.001-.052-.007a.11.11 0 0 1-.043-.03c-.131-.004-.256-.057-.348-.149a.48.48 0 0 1-.044-.184.48.48 0 0 1 .03-.188c-.009-.016-.012-.033-.013-.051s.003-.036.01-.052c.043-.092.102-.176.171-.25l.123-.24c.127-.255.067-.285.194-.54l.252-.51c.058-.111.141-.207.242-.279a.52.52 0 0 1 .06-.204.45.45 0 0 1 .178-.183.55.55 0 0 0 .04-.296c-.01-.295-.163-.198-.306-.454a.52.52 0 0 1-.067-.316.42.42 0 0 1-.221-.194 1.35 1.35 0 0 1-.133-.391.66.66 0 0 1-.106-.146 2.55 2.55 0 0 1-.125-.251 1.52 1.52 0 0 1-.172-.252c-.143-.255-.177-.236-.32-.491a.59.59 0 0 1-.031-.254.6.6 0 0 1 .079-.245c.08-.113.3-.121.434-.097l.58.089c.04.007.08.017.118.029.178.01.232-.046.472-.003a.58.58 0 0 1 .277.122.46.46 0 0 1 .304-.045.56.56 0 0 1 .294.145.61.61 0 0 1 .274-.007c.287.051.278.274.558.185.063-.017.122-.049.169-.096a.38.38 0 0 0 .099-.168.6.6 0 0 1 .112-.158l.025-.023c.17-.181.139-.232.329-.426a.82.82 0 0 1 .256-.183.4.4 0 0 1 .118-.247c.198-.203.272-.13.471-.333l.198-.187c.012-.106.06-.206.136-.282zm12.645-56.515c.111.269-.177 2.293-.269 2.263.21.213-.144.506-.512.468-.221.074-.571-.145-.481-.501.004-.1-.124-.39.048-1.438-.174-.446-.08-.499.022-1.072.019-.171.124-1.138-.614-.122-.422.791-.706 1.132-.853.984-.024.153-.27.129-.7.058.025-.134-.212-.267-.059-.683-.325-.071.235-.432.853-.985.87-.939-.238-1.142-.395-1.113-.574-.059-.327.014-.795-.082l-1.237.036-1.148-.039c-.218.131-.61-.172-.481-.501-.076-.248.197-.625.513-.468.08-.058.463.043 1.148.038.41-.126.844.184 1.3.073.145-.032.157.098.649.066.808.013.898-.298.38-.658-.324-.343-.459-.341-.788-.682-.134-.333-.672-.65-.823-.72-.266-.166-.218-.288-.309-.242-.048-.294-.23-.456-.048-.684-.058-.234.557-.28.701-.046-.017.133.169.091.397.26.245.257.406.313.734.702.402.348.279.397.789.635.531.543.94-.046.941-.186-.048-.436.092-.202.035-.896.057-.762-.041-1.345.048-1.438-.168-.122.285-.25.513-.467.375-.053.272.353.479.5.11-.085.085 1.488.013 2.025-.053.502.241.736.578.088.246-.303.324-.289.557-.535.567-.599.669-1.238.854-.985.115-.399.331-.116.699-.057.117.034.05.024.176.387-.002.022.021.018-.116.296-.144-.181-1.037 1.646-1.324 1.953-.214.3-.678.826.334.718.572 0 1.527.178 1.971.186.732.017 1.141.123 1.147.039a.49.49 0 0 1 .48.502.48.48 0 0 1-.046.186.49.49 0 0 1-.467.281l-1.147-.039c-.613.028-.82-.011-1.299-.022-1.877-.281-.581.549-.237 1.061.498.361.637.638.885.755.203.169.246.352.246.207.104.05.332.232.17.382.005.164-.034.255-.121.302-.248.269-.209.166-.701.047.163.011-.229-.103-.287-.267-.165-.138-1.102-.685-1.493-1.139-.151-.19-1.101-.753-.914.568z" fill="#111"/><g fill="#000"><path d="M96.382 77.97a.75.75 0 0 0 .616.214c.163-.019.321-.091.445-.216a.75.75 0 0 0-.002-1.061c-.547-.545-1.11-1.003-1.674-1.361a.75.75 0 0 0-.805 1.266c.472.3.95.689 1.42 1.157zm-51.267 45.997a.75.75 0 1 0-1.098 1.022 26.27 26.27 0 0 0 3.02 2.768c.162.128.36.178.549.156s.375-.118.504-.282a.75.75 0 0 0-.127-1.053c-1.034-.812-1.992-1.69-2.848-2.611zm6.06 4.776a.75.75 0 1 0-.749 1.3 29.98 29.98 0 0 0 3.667 1.793.75.75 0 1 0 .567-1.389 28.69 28.69 0 0 1-3.485-1.704zm10.97 5.159a.75.75 0 0 0 .01-1.488c-1.292-.168-2.575-.418-3.813-.742a.75.75 0 0 0-.916.535.75.75 0 0 0 .535.915 31.79 31.79 0 0 0 4 .779.75.75 0 0 0 .184.001zM44.321 107.96a.75.75 0 0 0 .339-.128c1.011-.696 2.145-1.203 3.371-1.508a.75.75 0 0 0 .547-.909c-.099-.401-.507-.644-.908-.547a11.77 11.77 0 0 0-3.861 1.73.75.75 0 0 0 .512 1.362zm-4.247 6.566c.061.008.122.008.18.001a.75.75 0 0 0 .657-.651 8.39 8.39 0 0 1 1.21-3.42.75.75 0 0 0-.238-1.033.75.75 0 0 0-1.034.239c-.764 1.221-1.244 2.577-1.427 4.026a.75.75 0 0 0 .651.838zm11.641-8.442a9 9 0 0 1 3.47 1.138c.145.084.307.114.461.096a.75.75 0 0 0 .29-1.395c-1.225-.709-2.586-1.156-4.045-1.329a.75.75 0 0 0-.176 1.49zm-9.493 15.99c.107-.012.213-.048.31-.109a.75.75 0 0 0 .239-1.033c-.724-1.159-1.253-2.309-1.575-3.418-.117-.399-.536-.637-.929-.512a.75.75 0 0 0-.512.928c.361 1.244.947 2.52 1.744 3.796a.75.75 0 0 0 .723.348zm27.698 10.397l-2.66.174 2.68-2.326a.75.75 0 0 0-1.032-1.088l-3.073 2.643a.74.74 0 0 0-.193.926c-.21.131-.363.352-.365.618a.75.75 0 0 0 .745.755 35.25 35.25 0 0 0 4.06-.211h.005a.75.75 0 1 0-.168-1.491zm26.686-14.627a31.94 31.94 0 0 1-2.51 2.967.75.75 0 0 0 .628 1.263.75.75 0 0 0 .456-.227 33.21 33.21 0 0 0 2.629-3.107.75.75 0 1 0-1.203-.896zm-5.362 5.616a36.41 36.41 0 0 1-3.136 2.318.75.75 0 0 0 .501 1.37.74.74 0 0 0 .326-.119c1.143-.755 2.242-1.568 3.264-2.414a.75.75 0 0 0 .1-1.055.75.75 0 0 0-1.056-.1zm10.164-12.771a.75.75 0 0 0-.979.406 31.69 31.69 0 0 1-1.7 3.495.75.75 0 0 0 .283 1.022c.144.082.303.11.455.093a.75.75 0 0 0 .567-.376c.663-1.172 1.262-2.403 1.781-3.661a.75.75 0 0 0-.407-.979zm-16.662 17.075l-1.621.814-1.918.864a.75.75 0 0 0 .379 1.436.77.77 0 0 0 .206-.054l1.979-.892 1.676-.842a.75.75 0 0 0 .313-1.013c-.194-.367-.65-.503-1.014-.313zm18.627-24.778a.75.75 0 0 0-.858.625 34.48 34.48 0 0 1-.823 3.807.75.75 0 0 0 .521.922.74.74 0 0 0 .287.023.75.75 0 0 0 .636-.545 35.71 35.71 0 0 0 .861-3.974.75.75 0 0 0-.624-.858zm.226-7.952a.75.75 0 0 0-.707.792c.075 1.304.081 2.616.02 3.904a.75.75 0 0 0 .714.785c.042.002.083 0 .123-.005a.75.75 0 0 0 .662-.709 38.76 38.76 0 0 0-.021-4.061.75.75 0 0 0-.791-.706zm-3.204-10.588a.75.75 0 0 0 .781.461c.066-.008.132-.024.197-.051a.75.75 0 0 0 .411-.978 26.78 26.78 0 0 0-1.82-3.668.75.75 0 0 0-1.028-.256.75.75 0 0 0-.256 1.029 25.2 25.2 0 0 1 1.716 3.462zm1.248 3.687c.339 1.234.616 2.516.827 3.813a.75.75 0 0 0 .825.625l.035-.005a.75.75 0 0 0 .62-.86 38.22 38.22 0 0 0-.861-3.97c-.109-.399-.518-.628-.922-.524a.75.75 0 0 0-.524.922zm-24.104 42.682l-3.771 1.024a.75.75 0 0 0 .246 1.478c.025-.003.05-.007.075-.013 1.291-.282 2.607-.64 3.913-1.062a.75.75 0 0 0-.463-1.427zm-18.707-19.452a.75.75 0 0 0 .77.437.74.74 0 0 0 .129-.027.75.75 0 0 0 .526-.837 6.97 6.97 0 0 1-.048-1.8.75.75 0 0 0-.67-.822c-.28-.027-.543.102-.693.32-.235-.108-.518-.092-.745.068a.75.75 0 0 0-.183 1.045 9.82 9.82 0 0 1 .915 1.616z"/><path d="M77.931 108.037l.18 1.156a15.67 15.67 0 0 1 .071 2.757.75.75 0 0 0 .704.793.73.73 0 0 0 .132-.003.75.75 0 0 0 .661-.7 17.23 17.23 0 0 0-.078-3.018l-.2-1.278c-.081-.406-.483-.671-.881-.589a.75.75 0 0 0-.589.882zm-1.301-3.674a.75.75 0 0 0 .75.395.73.73 0 0 0 .264-.082.75.75 0 0 0 .313-1.013c-.754-1.427-1.684-2.581-2.761-3.431a.75.75 0 0 0-1.053.124.75.75 0 0 0 .124 1.053c.913.72 1.709 1.714 2.364 2.954zm-28.914 36.473l-3.957.975A.75.75 0 0 0 44 143.29l.071-.011 4.053-1a.75.75 0 0 0 .518-.926c-.112-.399-.53-.634-.925-.517zm23.17-40.8a.75.75 0 0 0 .821-.671.75.75 0 0 0-.672-.82c-1.405-.14-2.915.084-4.387.65a.75.75 0 0 0 .355 1.445.76.76 0 0 0 .184-.045c1.254-.482 2.528-.673 3.7-.559zm4.488 23.872a.75.75 0 0 0-1.251-.828c-.721 1.09-1.539 2.173-2.43 3.219a.75.75 0 0 0 .085 1.057c.165.141.373.197.573.174.182-.021.357-.108.485-.259a35.04 35.04 0 0 0 2.539-3.363zm3.062-8.578a.75.75 0 0 0-.924.521c-.345 1.237-.819 2.495-1.407 3.736a.75.75 0 0 0 .356.999c.132.062.272.083.407.067a.75.75 0 0 0 .592-.423 24.96 24.96 0 0 0 1.497-3.977.75.75 0 0 0-.521-.923zm-15.908 18.899l-3.497 2.068a.75.75 0 0 0 .442 1.406.76.76 0 0 0 .269-.084l3.603-2.132a.75.75 0 0 0 .221-1.037.75.75 0 0 0-1.037-.221zm1.369-31.633a.75.75 0 1 0-.981-1.135c-1.115.963-2.08 2.119-2.792 3.343a.75.75 0 0 0 .734 1.122c.226-.026.439-.155.562-.368a11.86 11.86 0 0 1 2.476-2.962zm-8.521 35.489l-3.779 1.51a.75.75 0 0 0 .339 1.451.71.71 0 0 0 .167-.039l3.881-1.551a.75.75 0 0 0 .382-.989.75.75 0 0 0-.99-.382zm-15.688 4.453l-1.962.257a.75.75 0 1 0 .173 1.49l2.005-.262a.75.75 0 0 0 .634-.852c-.059-.409-.438-.669-.85-.633z"/></g></svg>