<svg xmlns="http://www.w3.org/2000/svg" width="151" height="150" fill="none" xmlns:v="https://vecta.io/nano"><g fill="#111"><path d="M23.534 91.143a.94.94 0 0 0 .246-.018c.026-.007.05-.017.074-.026.063.015.129.013.191-.007.073-.042.085-.168.145-.228s.161-.086.203-.158a.98.98 0 0 0 .054-.25l.02-.064a.4.4 0 0 0 .079-.179 1.66 1.66 0 0 0-.009-.18.23.23 0 0 0-.002-.087 1.09 1.09 0 0 0-.138-.229.34.34 0 0 0-.084-.09.45.45 0 0 0-.077-.112.25.25 0 0 0-.092-.053.39.39 0 0 0-.109-.112 1.04 1.04 0 0 0-.243-.094 1.39 1.39 0 0 0-.209-.045.2.2 0 0 0-.049-.008 1.09 1.09 0 0 0-.267.021 1.07 1.07 0 0 0-.232.131 1.03 1.03 0 0 0-.206.158 1.06 1.06 0 0 0-.181.192 1.08 1.08 0 0 0-.115.242c-.021.079.064.181.064.266a.42.42 0 0 0 .034.148c-.001.03.003.06.01.09a1.18 1.18 0 0 0 .047.14c.006.031.016.062.032.09.105.123.219.239.342.345.023.013.047.023.073.031.04.06.072.138.13.153s.119-.039.181-.075a.46.46 0 0 0 .087.009zm15.711.063c.082-.022.135-.135.207-.176.028-.018.052-.041.071-.069.053-.008.102-.03.144-.064a1.02 1.02 0 0 0 .143-.207c.004-.008.007-.017.009-.025.047-.062.128-.115.148-.189.013-.049-.025-.105-.056-.161.02-.03.032-.065.035-.102a.5.5 0 0 0-.032-.157.18.18 0 0 0 .006-.094l-.042-.127c.003-.043-.005-.086-.024-.125a1.03 1.03 0 0 0-.614-.466.57.57 0 0 0-.17-.008c-.026-.02-.058-.032-.091-.034a1.07 1.07 0 0 0-.262.039c-.082.022-.134.124-.206.166a.99.99 0 0 0-.215.127c-.03.032-.055.068-.073.108-.037.02-.069.049-.092.084-.042.074-.073.153-.094.236a.53.53 0 0 0-.08.251.54.54 0 0 0 .05.259c.051.166.146.316.274.435.061.061.129.114.203.158a.27.27 0 0 0 .097.029c.032.049.077.088.13.112.044.004.088-.009.122-.037a.28.28 0 0 0 .145.064.21.21 0 0 0 .127-.074c.039.033.089.049.14.047zm-.521 5.743a1.15 1.15 0 0 0-.26.057 1.08 1.08 0 0 0-.207.168c-.014.015-.023.034-.026.054a1.02 1.02 0 0 0-.123.164c-.051.073-.092.152-.122.236-.005.039.003.078.024.111a.71.71 0 0 1 .03.153c0 .086-.047.178-.026.257a.26.26 0 0 1 .126.225.36.36 0 0 0 .13.109c.013.024.029.047.048.066a.39.39 0 0 0 .073.055c.026.047.062.088.106.119a1.02 1.02 0 0 0 .221.14c.086.017.174.024.262.019a1.06 1.06 0 0 0 .264-.009c.014-.004.027-.011.038-.02a1.45 1.45 0 0 0 .195-.104c.071-.041.098-.139.154-.198l.006-.005c.059-.059.146-.096.188-.169a1.08 1.08 0 0 0 .087-.189c.01-.013.018-.027.022-.042a.18.18 0 0 0 .002-.025c.036-.072.06-.149.072-.229 0-.086-.087-.166-.108-.246a1.25 1.25 0 0 0-.044-.135.18.18 0 0 0-.004-.121.31.31 0 0 0-.135-.099l-.066-.069a.28.28 0 0 0-.069-.048c-.031-.048-.071-.089-.118-.121-.038-.022-.078-.041-.119-.058-.028-.044-.058-.086-.1-.097-.08-.021-.181.085-.267.085l-.02.001c-.08-.008-.16-.057-.234-.038zm-7.733-.007a1.04 1.04 0 0 0-.246.085.55.55 0 0 0-.077.055.54.54 0 0 0-.144.091c-.018.021-.03.047-.033.075a.64.64 0 0 0-.124.138c-.021.05-.028.105-.021.159-.031.022-.054.053-.067.088-.016.059.03.124.055.19l.003.068c0 .086-.045.169-.024.249.011.04.026.078.044.115-.021.048-.024.102-.008.151a.83.83 0 0 0 .175.168l.015.02c.024.022.053.038.084.047.05.022.104.038.15.065a.48.48 0 0 0 .093.039.69.69 0 0 0 .136.054l.095.023c.045.029.097.046.15.051.086 0 .16-.073.239-.094a.86.86 0 0 1 .113-.019c.048.005.096-.004.139-.023a1.48 1.48 0 0 0 .202-.117.21.21 0 0 0 .023-.017l.011-.018c.046-.061.05-.159.089-.225l.08-.142c.018-.023.031-.049.04-.077a.57.57 0 0 0 .012-.501c-.016-.045-.041-.085-.075-.118-.002-.039-.013-.077-.031-.112a.96.96 0 0 0-.162-.192c-.059-.059-.092-.167-.165-.209s-.185-.007-.267-.029-.16-.101-.246-.101a1.02 1.02 0 0 0-.256.064zm.141-23.087a.43.43 0 0 0-.14.007 1.08 1.08 0 0 0-.255.071c-.073.042-.112.142-.171.201s-.069.15-.111.223-.173.111-.195.192a1.05 1.05 0 0 0-.003.263.62.62 0 0 0 .041.187c-.001.022.001.043.006.064a1.06 1.06 0 0 0 .066.253.18.18 0 0 0 .085.064.39.39 0 0 0 .076.145 1.03 1.03 0 0 0 .226.134.89.89 0 0 0 .156.067.2.2 0 0 0 .078.046 1.07 1.07 0 0 0 .259-.007c.086 0 .185.048.265.027.056-.015.088-.084.125-.141a.7.7 0 0 0 .078-.036.97.97 0 0 0 .217-.125c.059-.059.154-.102.197-.174a1.07 1.07 0 0 0 .113-.241c.005-.021.005-.042.001-.063.006-.065.001-.137.001-.202a.31.31 0 0 0-.05-.143c0-.035-.005-.071-.014-.105-.057-.156-.145-.299-.259-.42l-.035-.032c-.039-.064-.062-.154-.122-.188-.072-.041-.188-.002-.27-.024-.079-.033-.161-.056-.246-.067a.37.37 0 0 0-.116.023zm23.026 46.128a1.06 1.06 0 0 0-.231.127.23.23 0 0 0-.054.045.96.96 0 0 0-.146.117c-.025.029-.042.065-.048.103a.55.55 0 0 0-.089.111.94.94 0 0 0-.1.229.98.98 0 0 0-.066.248v.046a.71.71 0 0 0-.004.221 1.07 1.07 0 0 0 .12.239c.016.024.04.041.067.049a.59.59 0 0 0 .1.155c.043.032.095.049.149.05.011.039.034.074.067.098a.6.6 0 0 0 .171.055.18.18 0 0 0 .07.043 1.06 1.06 0 0 0 .258.027c.021 0 .042-.002.063-.005a.8.8 0 0 0 .195-.02c.082-.022.141-.104.213-.146s.193-.033.252-.092a.6.6 0 0 0 .163-.21.61.61 0 0 0 .057-.258.16.16 0 0 0-.004-.084c.035-.05.058-.108.066-.168a1.01 1.01 0 0 0-.042-.256c-.017-.043-.047-.08-.086-.105.019-.046.021-.098.004-.145-.042-.073-.166-.087-.225-.146a.5.5 0 0 0-.049-.042c-.03-.063-.047-.144-.102-.176a1.07 1.07 0 0 0-.243-.103c-.041-.006-.083.003-.118.025l-.145.006c-.036.001-.071.004-.106.01-.055-.028-.11-.061-.158-.048zm.776 9.54c.073-.042.081-.174.14-.233.033-.029.07-.052.11-.07a.2.2 0 0 0 .128-.068 1.04 1.04 0 0 0 .103-.246.16.16 0 0 0-.015-.1 1.39 1.39 0 0 1-.021-.164l.005-.152a.19.19 0 0 0 .012-.108 1.07 1.07 0 0 0-.088-.249c-.037-.043-.088-.074-.143-.087-.016-.03-.036-.058-.06-.083-.065-.052-.136-.096-.212-.131-.072-.041-.126-.141-.208-.163-.039-.007-.079-.007-.118.002l-.144.006c-.051 0-.104-.006-.156-.007-.035-.007-.071-.008-.106 0s-.059.03-.079.057a.99.99 0 0 1-.127.109 1.1 1.1 0 0 1-.186.054.14.14 0 0 0-.07.032c-.059.059-.034.188-.076.26s-.127.125-.149.207c-.007.041-.001.083.017.121-.02.041-.032.086-.034.132 0 .086-.054.187-.033.266.028.065.068.123.119.172l.026.052a1.01 1.01 0 0 0 .151.21c.038.029.084.046.132.048.025.033.055.06.09.082.072.041.134.133.217.155.088.013.177.016.266.008.086 0 .162-.076.241-.098a1.22 1.22 0 0 1 .201-.002.12.12 0 0 0 .07-.012zm-16.016-7.609c.019.007.04.01.06.01a.2.2 0 0 0 .093-.027l.147-.044c.082-.022.187.011.259-.03.03-.022.053-.053.066-.088a.3.3 0 0 0 .152-.059c.034-.042.058-.091.07-.143.039-.009.073-.031.097-.063.042-.071.014-.18.036-.262.005-.017.007-.035.01-.053.038-.062.105-.124.105-.192 0-.086-.097-.165-.118-.244a.79.79 0 0 0-.103-.223.97.97 0 0 0-.128-.215 1.02 1.02 0 0 0-.193-.166 1.12 1.12 0 0 0-.227-.138c-.08-.021-.179.034-.266.034a.93.93 0 0 0-.245.043c-.082.022-.184.004-.256.046s-.102.146-.161.205-.188.073-.23.146a1.07 1.07 0 0 0-.1.248 1.09 1.09 0 0 0-.006.264c.003.052.017.103.041.15.004.034.01.067.018.1.028.079.067.154.115.223.042.073.053.176.112.235.014.013.031.023.049.03a.64.64 0 0 0 .147.151c.051.017.106.016.155-.004.028.032.064.056.104.07.065.01.132.009.197-.004zm8.176-7.849l.059-.029a1.02 1.02 0 0 0 .222-.115 1.04 1.04 0 0 0 .175-.187c.014-.03.02-.062.015-.095a.59.59 0 0 0 .069-.147c.011-.045.014-.091.012-.137.034-.029.057-.07.063-.115a1.12 1.12 0 0 0-.026-.264c-.022-.082-.145-.126-.186-.198a.4.4 0 0 0-.066-.083c-.016-.044-.041-.084-.072-.119-.059-.059-.103-.14-.176-.182a1.06 1.06 0 0 0-.226-.14 1.08 1.08 0 0 0-.266-.024c-.086 0-.161.095-.241.116s-.199-.03-.271.012a1.05 1.05 0 0 0-.187.187.38.38 0 0 0-.074.155c-.026.014-.048.035-.064.059a.27.27 0 0 0-.03.103.36.36 0 0 0-.076.127 1.13 1.13 0 0 0-.028.152c-.022.029-.035.063-.038.099a.33.33 0 0 0 .018.098.4.4 0 0 0-.01.169.59.59 0 0 0 .105.175.3.3 0 0 0 .025.058 1.07 1.07 0 0 0 .141.225c.059.059.195.028.268.07s.118.151.2.173c.078.014.158.018.238.012.008.001.015.003.023.003a1.11 1.11 0 0 0 .264-.005c.062-.016.096-.096.139-.153zm-7.848-7.508c.048-.013.076-.074.106-.131.038-.003.076-.013.11-.031a.93.93 0 0 0 .199-.154c.059-.06.169-.093.211-.166a.47.47 0 0 0 .04-.18c.025-.017.044-.042.054-.07.006-.035.003-.07-.011-.103a.5.5 0 0 0 .036-.16c0-.086-.09-.161-.111-.241l-.038-.125c-.007-.038-.02-.074-.038-.108-.012-.021-.027-.039-.04-.059a.5.5 0 0 0-.092-.156.95.95 0 0 0-.21-.143 1.02 1.02 0 0 0-.244-.057c-.08-.021-.153-.118-.239-.118a1.04 1.04 0 0 0-.259.045c-.082.022-.135.117-.207.159s-.174.048-.233.107a.63.63 0 0 0-.193.184.62.62 0 0 0-.098.248c-.004.047.009.095.036.134a.24.24 0 0 0-.055.13c-.006.177.04.352.132.504.042.072.141.11.201.169s.092.165.166.207a.3.3 0 0 0 .178.003.44.44 0 0 0 .086.036l.122.031c.035.031.079.051.126.056a1.14 1.14 0 0 0 .268-.011zm-.012 7.635a.17.17 0 0 0 .084-.065.37.37 0 0 0 .154-.034 1.09 1.09 0 0 0 .217-.144c.059-.06.074-.16.117-.233.014-.025.024-.053.029-.082.051-.04.112-.076.127-.131a.45.45 0 0 0-.037-.202c.005-.02.007-.04.007-.061a.2.2 0 0 0-.013-.067c.009-.061.008-.122-.004-.183a.56.56 0 0 0-.061-.253c-.04-.079-.098-.148-.169-.2a1.02 1.02 0 0 0-.21-.154c-.032-.015-.067-.021-.102-.017-.053.003-.106 0-.158-.009-.068-.018-.131-.059-.201-.071-.012-.004-.024-.006-.037-.007-.086 0-.187-.049-.267-.028-.026.009-.05.024-.067.045-.055.029-.107.069-.158.098a1.07 1.07 0 0 0-.23.129c-.022.024-.039.053-.05.083-.032.046-.059.096-.086.142-.015.031-.021.066-.016.101a1.38 1.38 0 0 0-.046.146c-.027.079-.043.162-.048.245l.004.113c-.011.047-.012.097-.003.145a1.09 1.09 0 0 0 .071.257c.024.042.087.056.147.072a.43.43 0 0 0 .069.09c.059.06.096.163.169.205.048.019.1.023.15.012a.48.48 0 0 0 .109.044 1 1 0 0 0 .253.06 1.03 1.03 0 0 0 .257-.046zm38.346 15.466c.086 0 .154-.129.233-.15s.197.04.269-.001a.79.79 0 0 0 .383-.357.56.56 0 0 0 .048-.192c.014-.018.025-.038.031-.059.006-.027.004-.054-.005-.079a1.07 1.07 0 0 0 .015-.178 1.03 1.03 0 0 0-.01-.257c-.022-.055-.058-.104-.103-.143-.007-.027-.017-.053-.031-.078s-.033-.047-.053-.068a.36.36 0 0 0-.07-.159c-.058-.067-.124-.127-.196-.178a1.09 1.09 0 0 0-.257-.065.87.87 0 0 0-.152-.023.18.18 0 0 0-.103-.043 1.08 1.08 0 0 0-.266.027 1 1 0 0 0-.228.101 1.06 1.06 0 0 0-.226.17 1.08 1.08 0 0 0-.174.202c-.021.066-.026.136-.014.204-.009.02-.016.041-.022.062a.99.99 0 0 0-.07.248c-.006.088-.002.176.013.263a.72.72 0 0 0 .288.431c.024.021.053.034.084.039.019.059.055.111.102.15a1.1 1.1 0 0 0 .245.112c.088.018.178.025.268.021zm-7.457-.064a1.03 1.03 0 0 0 .248-.084c.078-.041.151-.092.216-.152.009-.01.015-.021.021-.033a.95.95 0 0 0 .144-.175c.037-.08.064-.165.079-.251s.021-.171.015-.257c-.012-.072-.039-.141-.078-.203l-.007-.036a.88.88 0 0 0-.091-.223c-.03-.045-.067-.085-.111-.117a.51.51 0 0 0-.052-.059c-.059-.06-.063-.191-.136-.233a1.08 1.08 0 0 0-.24-.115 1.19 1.19 0 0 0-.266.021c-.041 0-.083.004-.124.01a.37.37 0 0 0-.133.004.27.27 0 0 0-.115.076l-.102.06c-.073.042-.195.033-.254.092a.31.31 0 0 0-.064.136l-.055.1c-.042.072-.025.167-.047.249s-.091.152-.091.238a1.13 1.13 0 0 0-.014.266 1.08 1.08 0 0 0 .113.242l.005.005c.006.009.013.017.021.023.051.053.135.084.186.134a1.01 1.01 0 0 0 .181.179.45.45 0 0 0 .156.043.17.17 0 0 0 .081.059c.041.007.084.003.123-.012a.55.55 0 0 0 .134.017c.085.01.172.008.257-.004zm14.935 5.78a.98.98 0 0 0-.241.088c-.029.019-.053.044-.07.074a.3.3 0 0 0-.164.052.34.34 0 0 0-.067.156c-.033.013-.062.035-.082.064s-.017.072-.007.107a.43.43 0 0 0-.079.14c-.021.079.027.171.027.256s-.07.184-.049.263c.012.045.06.075.108.106a.37.37 0 0 0 .038.113 1.09 1.09 0 0 0 .119.233c.052.052.162.028.238.05l.029.014.015.009c.064.045.108.128.185.149.034.007.07.006.104-.002.042.037.094.06.149.068a.53.53 0 0 0 .197-.066c.018.001.036-.001.054-.005a.19.19 0 0 0 .063-.033.77.77 0 0 0 .168-.068c.037-.021.073-.045.108-.071.05.007.1-.004.142-.032a1.11 1.11 0 0 0 .162-.215 1.07 1.07 0 0 0 .092-.25c.007-.04.005-.081-.008-.12a1.26 1.26 0 0 1-.015-.143.45.45 0 0 0-.008-.079.51.51 0 0 0-.004-.174.48.48 0 0 0-.123-.166l-.025-.042c-.042-.073-.029-.191-.088-.25s-.16-.057-.233-.092c-.035-.022-.06-.033-.086-.041a1.04 1.04 0 0 0-.154-.056c-.08-.021-.156-.127-.243-.127a.5.5 0 0 0-.201.087c-.017-.002-.035-.001-.052.003zm-15.441.012c-.027.009-.053.021-.075.038-.05.024-.096.053-.144.081-.073.042-.177.047-.236.106-.047.047-.042.131-.059.201l-.027.046a.46.46 0 0 1-.03.045c-.06.047-.156.079-.173.144-.021.079.034.179.034.264-.005.098-.058.191-.038.266.026.086.062.168.108.245.039.048.09.085.148.108.007.029.021.055.041.077a.48.48 0 0 0 .111.08.28.28 0 0 0 .087.088c.154.084.327.124.502.118.086 0 .163-.061.242-.082l.122-.027c.044 0 .087-.01.126-.029.073-.042.182-.057.241-.116s.069-.171.111-.244a.95.95 0 0 0 .087-.236.63.63 0 0 0 .014-.179l.005-.069-.004-.081a.55.55 0 0 0-.01-.168 1.06 1.06 0 0 0-.059-.253.21.21 0 0 0-.083-.072.42.42 0 0 0-.078-.136.43.43 0 0 0-.145-.08c-.017-.029-.041-.053-.069-.072-.08-.034-.163-.058-.249-.071a.35.35 0 0 0-.178.028l-.074-.001c-.086 0-.17-.04-.249-.019zm39.114 1.9a1.06 1.06 0 0 0 .237-.115.15.15 0 0 0 .037-.034.64.64 0 0 0 .196-.097c.037-.037.032-.108.033-.173.028-.021.052-.046.071-.075.034-.076.058-.157.071-.239.022-.079.116-.156.116-.242-.001-.022-.006-.044-.015-.065a1.07 1.07 0 0 0-.03-.195c-.014-.035-.039-.065-.071-.084.008-.056.001-.112-.021-.165-.042-.072-.138-.116-.198-.175a.97.97 0 0 0-.185-.183 1.02 1.02 0 0 0-.238-.119c-.087-.015-.177-.019-.266-.013a.37.37 0 0 0-.171.082c-.025-.001-.05.001-.074.007-.068.019-.133.047-.195.081-.011.004-.022.009-.032.015-.074.042-.18.047-.24.106a1.05 1.05 0 0 0-.124.228c-.045.072-.081.149-.105.23-.008.031-.012.063-.013.095-.026.048-.041.101-.046.155a1.03 1.03 0 0 0 .027.26 1.08 1.08 0 0 0 .083.252c.028.035.066.059.11.07l.097.098c.059.059.092.17.166.212.038.017.08.022.121.014a.35.35 0 0 0 .13.082c.089.012.178.013.267.003.062-.001.123-.011.183-.027.024.012.052.016.079.011zm-8.297-1.895c-.065.004-.128.02-.187.046-.073.042-.107.146-.166.205s-.18.082-.222.155a1.08 1.08 0 0 0-.089.252c-.021.079.058.177.058.262s-.07.181-.049.26a.14.14 0 0 0 .022.044c.018.069.044.136.077.199a.75.75 0 0 0 .361.383c.085.027.173.045.262.051a.98.98 0 0 0 .253.039 1.07 1.07 0 0 0 .265.009c.085-.026.167-.062.244-.108s.115-.137.175-.196a.31.31 0 0 0 .05-.074c.059-.027.126-.048.154-.097a.18.18 0 0 0-.002-.131.25.25 0 0 0 .101-.115 1.06 1.06 0 0 0 .002-.264c-.005-.05-.024-.098-.054-.138.016-.036.02-.076.014-.114a1.12 1.12 0 0 0-.06-.162c.002-.03-.004-.06-.017-.086-.024-.037-.054-.068-.089-.093-.027-.035-.055-.068-.086-.1-.065-.055-.137-.102-.214-.139l-.005-.002a.94.94 0 0 0-.227-.1c-.079-.021-.165-.093-.251-.093-.089.013-.175.037-.258.072a.17.17 0 0 0-.063.035zM24.043 98.77c.041-.03.074-.069.095-.115.043-.001.085-.015.12-.042.059-.059.048-.18.09-.253s.085-.142.113-.221a.98.98 0 0 0 .067-.247.2.2 0 0 0-.049-.113.43.43 0 0 0-.008-.137.3.3 0 0 0-.074-.118c.003-.04-.005-.079-.023-.115-.036-.078-.081-.151-.136-.218-.006-.005-.012-.01-.019-.014a1 1 0 0 0-.187-.144.25.25 0 0 0-.16-.002.22.22 0 0 0-.091-.056c-.033-.007-.066-.007-.099 0-.047-.048-.093-.106-.148-.106a1.11 1.11 0 0 0-.267.033.61.61 0 0 0-.184.121l-.041.021c-.083.032-.162.074-.235.124-.045.045-.047.127-.064.195-.017.014-.031.031-.043.049a.96.96 0 0 0-.107.228c-.009.04-.009.081-.001.12-.042.041-.085.083-.085.13a.69.69 0 0 0 .048.205c-.003.018-.003.037.002.055a1.09 1.09 0 0 0 .08.255c.013.02.031.037.052.048.044.048.1.09.144.134.07.05.145.092.225.123l.115.062c.027.045.055.088.097.099a1.09 1.09 0 0 0 .264.027 1.19 1.19 0 0 0 .51-.131z"/><path d="M23.943 83.363c.03.001.059-.005.086-.019s.049-.041.065-.069a.41.41 0 0 0 .15-.078.7.7 0 0 0 .11-.163c.018-.012.033-.028.044-.047a1.01 1.01 0 0 0 .087-.243.49.49 0 0 0-.005-.183.17.17 0 0 0 .018-.071c.017-.086.024-.174.021-.263-.019-.044-.053-.079-.096-.1a.23.23 0 0 0-.01-.142c-.17-.2-.379-.365-.613-.485-.08-.021-.181.036-.267.036-.011 0-.021.002-.032.003-.079-.011-.165-.056-.235-.038-.064.017-.101.103-.148.16l-.052.027a.33.33 0 0 0-.051.036c-.067.007-.131.029-.187.067-.052.051-.099.107-.14.167-.012.008-.022.019-.03.031a1.06 1.06 0 0 0-.094.244 1.04 1.04 0 0 0-.066.258.19.19 0 0 0 .063.116c-.019.047-.025.098-.018.148.015.057.088.09.145.129.008.026.018.05.032.074a.38.38 0 0 0 .061.075c.007.053.028.102.061.144.059.059.098.164.171.206a1.14 1.14 0 0 0 .264.05c.08.021.167.089.254.089a1.09 1.09 0 0 0 .262-.058c.056-.022.107-.056.148-.099zm7.555 7.78c.072-.013.143-.031.213-.053a.19.19 0 0 0 .039-.011c.013-.005.019-.014.027-.022a.93.93 0 0 0 .186-.132.28.28 0 0 0 .06-.131c.03-.026.056-.057.077-.091a.99.99 0 0 0 .103-.235 1.01 1.01 0 0 0 .012-.255c.014-.086.018-.174.011-.261a.25.25 0 0 0-.087-.112.53.53 0 0 0-.047-.112c-.019-.029-.046-.053-.076-.07-.011-.052-.035-.1-.069-.141-.063-.058-.133-.109-.209-.149-.038-.02-.081-.031-.124-.033a.26.26 0 0 0-.11-.074c-.041-.007-.084-.003-.123.013-.041-.022-.087-.035-.134-.037-.086 0-.16.067-.239.088a.43.43 0 0 0-.101.044.59.59 0 0 0-.121.051.91.91 0 0 0-.202.134c-.059.059-.14.101-.182.174s-.126.139-.149.221c-.005.023-.003.047.006.069a.99.99 0 0 0-.022.196c.005.045.025.088.056.122a.22.22 0 0 0-.039.143c.026.085.062.167.108.244s.145.11.204.169c.013.012.028.022.045.03a.85.85 0 0 0 .156.121.96.96 0 0 0 .231.1c.08.038.164.066.25.083.06-.011.115-.039.159-.082a.21.21 0 0 0 .092.001zm-.763-9.535c-.076.047-.145.103-.207.167a1.07 1.07 0 0 0-.158.212 1.05 1.05 0 0 0-.102.243 1.1 1.1 0 0 0 .014.261.62.62 0 0 0 .033.181c-.004.022-.004.046.002.068a.37.37 0 0 0 .034.079.49.49 0 0 0 .048.16.99.99 0 0 0 .177.181c.059.059.085.176.158.218a1.1 1.1 0 0 0 .26.058 1.03 1.03 0 0 0 .255.06c.045-.005.086-.026.118-.058.041-.018.082-.034.124-.047.077-.026.149-.063.216-.11.073-.042.212-.004.272-.063s.117-.136.162-.214c.019-.043.025-.09.018-.135a.58.58 0 0 0 .05-.121.47.47 0 0 0 .016-.122.25.25 0 0 0 .059-.133.35.35 0 0 0-.042-.142c.008-.04.008-.082-.001-.122-.022-.082-.118-.141-.16-.213s-.04-.191-.1-.25-.137-.116-.216-.161a.35.35 0 0 0-.19-.005c-.024-.014-.05-.025-.076-.033-.035-.007-.071-.005-.105.006a.64.64 0 0 0-.144-.019c-.086 0-.184-.061-.264-.04a1.08 1.08 0 0 0-.249.096zm15.957 40.358c.055 0 .102-.048.149-.088.027-.018.056-.032.086-.041s.067-.01.101-.009c.054.017.111.016.164-.002.034-.022.065-.049.09-.081a.6.6 0 0 0 .112-.083 1.84 1.84 0 0 0 .27-.44.98.98 0 0 0 .029-.259 1 1 0 0 0-.06-.251l-.044-.16c.01-.033.008-.069-.006-.101a.28.28 0 0 0-.104-.089l-.088-.096c-.026-.025-.056-.046-.089-.062a.37.37 0 0 0-.106-.114.42.42 0 0 0-.124-.041.27.27 0 0 0-.114-.081c-.05-.013-.108.021-.166.049l-.102.005c-.086 0-.187-.068-.266-.047-.039.016-.072.044-.092.08a.53.53 0 0 0-.14.049.62.62 0 0 0-.206.157.6.6 0 0 0-.123.227 1.01 1.01 0 0 0-.136.218c-.006.031-.002.063.011.092-.005.054-.003.109-.003.165 0 .086-.054.184-.033.264.015.037.044.066.08.084a.3.3 0 0 0 .016.165c.037.053.083.099.135.136 0 .028.01.055.029.077.041.041.123.032.194.037a.3.3 0 0 1 .077.028l.039.019c.052.052.092.136.16.154.084.024.172.037.26.039zm.368 7.556c.041-.01.08-.025.116-.045a.35.35 0 0 0 .095-.081c.045-.007.088-.026.123-.055a.7.7 0 0 0 .106-.152.25.25 0 0 0 .047-.055c.047-.073.085-.152.112-.234a1.36 1.36 0 0 0 .049-.218c.004-.013.006-.027.007-.04 0-.063-.063-.117-.106-.172-.015-.019-.027-.041-.035-.064l-.002-.009a.84.84 0 0 0-.043-.237c-.042-.072-.051-.183-.111-.242s-.181-.049-.255-.091c-.016-.009-.033-.017-.051-.023-.05-.053-.091-.134-.156-.151-.08-.021-.18.032-.266.032a.28.28 0 0 0-.12.034c-.042-.02-.088-.027-.134-.021a.62.62 0 0 0-.249.077.61.61 0 0 0-.194.173c-.034.037-.062.078-.083.124a.2.2 0 0 0-.09.07 1.06 1.06 0 0 0-.126.234c-.021.08.05.18.05.266a.95.95 0 0 0 .006.25.3.3 0 0 0 .065.112c-.012.045-.009.093.008.135.034.059.11.087.17.127a.47.47 0 0 0 .032.037c.063.051.133.094.207.127l.004.002c.07.044.106.177.187.199a1.09 1.09 0 0 0 .267.03 1.05 1.05 0 0 0 .26-.055c.044-.017.082-.046.109-.084zm7.625-15.307c.043-.017.081-.047.107-.085.045 0 .089-.01.13-.03s.068-.058.09-.096a.24.24 0 0 0 .129-.05c.052-.071.094-.147.127-.229a.95.95 0 0 0 .079-.238.62.62 0 0 0 .018-.12.25.25 0 0 0 .047-.127.42.42 0 0 0-.062-.173l-.014-.07a.92.92 0 0 0-.095-.226.68.68 0 0 0-.072-.101c-.005-.045-.022-.087-.051-.121a.25.25 0 0 0-.091-.053c-.023-.049-.057-.091-.1-.123a1.11 1.11 0 0 0-.255-.057c-.08-.021-.163-.087-.249-.087a1.05 1.05 0 0 0-.261.044c-.038.014-.071.038-.094.071a.29.29 0 0 0-.154.019c-.052.038-.096.085-.13.14a.17.17 0 0 0-.066.036c-.059.059-.06.165-.102.238s-.144.122-.166.204a.44.44 0 0 0 .025.193l.003.066c0 .024.004.046.006.069a.68.68 0 0 0 .018.177c.013.084.037.165.072.243.017.025.039.047.066.061a.33.33 0 0 0 .062.169c.059.059.176.056.249.098l.108.065c.028.046.057.091.101.102.059.003.117-.014.165-.046l.1-.006.083-.004c.062.025.125.061.179.047z"/><path d="M46.617 104.575a.73.73 0 0 0-.187.014 1.12 1.12 0 0 0-.244.101.25.25 0 0 0-.085.113c-.048-.005-.097.007-.137.035-.059.059-.054.178-.096.251l-.011.028c-.048.058-.086.123-.113.192l-.055.19a.11.11 0 0 0-.024.063c0 .086.069.17.09.249a.94.94 0 0 0 .098.232l.083.126c.008.035.025.068.049.095a1.04 1.04 0 0 0 .219.136.25.25 0 0 0 .143.016.29.29 0 0 0 .1.052.92.92 0 0 0 .244.039.63.63 0 0 0 .204-.05c.012-.003.023-.004.036-.007l.043-.009c.076-.001.166.031.226-.003.073-.043.103-.15.162-.209.02-.021.038-.046.051-.072a.35.35 0 0 0 .129-.107.39.39 0 0 0 .034-.17c.015-.023.026-.048.034-.074a.99.99 0 0 0 .076-.244 1.02 1.02 0 0 0-.03-.257c-.022-.063-.055-.121-.096-.174-.003-.02-.009-.039-.019-.057a.37.37 0 0 0-.097-.1l-.08-.081c-.059-.059-.083-.178-.156-.221-.036-.017-.074-.028-.114-.032a.53.53 0 0 0-.136-.065c-.048-.01-.098-.012-.147-.006a.37.37 0 0 0-.119-.026c-.028.002-.054.013-.075.032zm-15.114 1.934c.043-.015.081-.04.11-.074a.22.22 0 0 0 .136-.01.36.36 0 0 0 .109-.141.29.29 0 0 0 .069-.047.96.96 0 0 0 .119-.217.46.46 0 0 0 .046-.121c.021-.03.038-.064.048-.099.017-.063.049-.122.062-.186.006-.017.009-.034.01-.052 0-.086.051-.186.029-.265s-.14-.129-.182-.201c-.042-.087-.029-.201-.085-.256a1.1 1.1 0 0 0-.229-.134.99.99 0 0 0-.181-.078c-.015-.017-.034-.029-.055-.035-.029-.006-.059-.002-.085.01-.058.005-.118.021-.176.021l-.179-.026c-.026-.013-.055-.017-.084-.012-.082.022-.148.103-.22.145a.97.97 0 0 0-.189.163c-.017.017-.032.036-.045.056-.065.029-.146.046-.177.099-.027.047-.005.116.008.182-.017.026-.03.055-.039.085a.18.18 0 0 0 .002.095.3.3 0 0 0-.061.151 1.09 1.09 0 0 0-.005.263 1.08 1.08 0 0 0 .107.243.13.13 0 0 0 .065.05.81.81 0 0 0 .109.147c.039.03.086.048.136.052a.2.2 0 0 0 .075.099c.072.034.148.057.227.069l.018.009a.65.65 0 0 0 .206.001l.045-.002h.002a1.02 1.02 0 0 0 .253.016zm30.389 13.549a.69.69 0 0 0-.164.073.2.2 0 0 0-.062.023 1.02 1.02 0 0 1-.076.038.35.35 0 0 0-.163.067 1.03 1.03 0 0 0-.138.218c-.056.068-.104.143-.141.223-.006.044.001.09.021.13a.67.67 0 0 0-.015.133.27.27 0 0 0 .024.101c-.031.049-.046.107-.042.166a1.1 1.1 0 0 0 .105.247c.042.073.163.097.222.156s.095.158.168.201a.32.32 0 0 0 .16.02l.097.032c.035.007.072.006.106-.004a.97.97 0 0 0 .142.013 1.03 1.03 0 0 0 .254.01.32.32 0 0 0 .135-.101c.028-.008.054-.019.08-.033a.45.45 0 0 0 .086-.067c.045-.014.086-.038.121-.069.068-.052.129-.113.181-.18.007-.014.012-.028.014-.044a1.1 1.1 0 0 0 .073-.196 1.01 1.01 0 0 0 .058-.252.59.59 0 0 0-.074-.208c0-.013-.001-.026-.003-.038a1.04 1.04 0 0 0-.055-.253 1.04 1.04 0 0 0-.169-.198.68.68 0 0 0-.142-.1c-.014-.026-.034-.048-.059-.064-.075-.043-.156-.078-.24-.101-.032-.006-.065-.003-.094.01-.049-.034-.106-.056-.165-.063-.086 0-.164.089-.244.11zm.5 9.534c.05-.014.097-.035.141-.062a.23.23 0 0 0 .106-.022 1.05 1.05 0 0 0 .186-.181.99.99 0 0 0 .121-.22c.042-.072.123-.129.145-.211a.34.34 0 0 0 .004-.123c.024-.04.038-.085.041-.131.01-.089.009-.178-.002-.266-.028-.085-.067-.166-.115-.241a.14.14 0 0 0-.061-.052.6.6 0 0 0-.101-.159c-.066-.06-.138-.111-.216-.153a.91.91 0 0 0-.248-.084c-.028-.005-.057-.003-.083.008a1.13 1.13 0 0 0-.175-.014.61.61 0 0 0-.174.032c-.025-.006-.051-.007-.077-.001a.26.26 0 0 0-.117.087.84.84 0 0 1-.087.06c-.073.042-.165.049-.224.108a.97.97 0 0 0-.181.181.27.27 0 0 0-.028.078c-.03.05-.053.104-.07.16a1.46 1.46 0 0 0-.032.147c-.021.033-.034.07-.037.109.001.089.012.178.034.264.008.024.02.046.037.065.03.056.072.109.102.161a.48.48 0 0 0 .13.229c.064.063.144.107.232.127a.29.29 0 0 0 .142.025c.027.03.06.051.097.064.033.007.067.006.1-.002.049.04.097.087.152.087.058-.01.113-.037.156-.077.032.011.066.014.1.007zm-8.222 5.785a1.01 1.01 0 0 0-.246.077c-.082.035-.16.079-.231.132-.059.059-.049.182-.091.254a.46.46 0 0 1-.097.1.23.23 0 0 0-.082.105c-.003.012-.003.023-.001.035-.002.073.038.157.038.231a.41.41 0 0 0 .04.154c-.005.03-.004.062.003.092a1.05 1.05 0 0 0 .052.253.48.48 0 0 0 .106.114.32.32 0 0 0 .058.088 1.1 1.1 0 0 0 .19.186c.06.034.157-.013.235-.017l.041.013c.08.022.152.126.238.126s.163-.086.243-.107.199.025.271-.016.114-.143.173-.202a1.07 1.07 0 0 0 .313-.417c.021-.079-.04-.181-.04-.267a1.1 1.1 0 0 0 .019-.261c-.007-.089-.035-.176-.082-.253a.6.6 0 0 0-.187-.192.32.32 0 0 0-.144-.064l-.093-.046-.08-.044c-.039-.039-.087-.069-.139-.088-.082-.036-.168-.062-.256-.077-.055 0-.104.047-.154.086-.033-.004-.066-.002-.098.005zm-7.235 1.842h.001.001c.082-.022.19.007.262-.034.041-.031.074-.073.093-.12.042-.001.082-.016.115-.042.059-.065.109-.137.15-.215a.74.74 0 0 0 .106-.497.79.79 0 0 0-.068-.228c-.024-.094-.007-.191-.048-.262-.036-.08-.081-.156-.136-.225-.045-.031-.099-.048-.154-.048l-.093-.05-.133-.069a.27.27 0 0 0-.088-.048 1.05 1.05 0 0 0-.251-.003.32.32 0 0 0-.069.01c-.068-.029-.138-.082-.197-.067s-.093.073-.134.123c-.032-.002-.064.003-.093.017-.033.023-.058.054-.074.09-.046.015-.089.039-.126.071-.031.035-.051.078-.061.124-.037.018-.068.046-.091.08-.042.072-.13.138-.152.22a1.09 1.09 0 0 0-.011.265c0 .086.104.157.126.236a.53.53 0 0 0 .061.237.54.54 0 0 0 .161.185l.088.095c.012.043.038.08.074.107a1.04 1.04 0 0 0 .236.117.2.2 0 0 0 .124-.022c.039.033.088.054.139.061.086 0 .164-.086.244-.108zm30.901.044a.68.68 0 0 0 .252-.077.64.64 0 0 0 .201-.17 1.08 1.08 0 0 0 .143-.216c.014-.028.021-.06.02-.092a1.15 1.15 0 0 0 .052-.151 1 1 0 0 0 .075-.246 1.05 1.05 0 0 0-.044-.254 1.07 1.07 0 0 0-.073-.252c-.008-.012-.018-.022-.03-.03-.046-.055-.113-.099-.162-.148-.041-.032-.09-.052-.142-.056a.28.28 0 0 0-.076-.07l-.096-.05c-.031-.053-.061-.11-.109-.123a1.12 1.12 0 0 0-.265-.017c-.064.004-.126.016-.186.038-.024-.009-.05-.011-.075-.006-.069.019-.11.104-.164.155a.16.16 0 0 1-.033.025l-.003.003c-.073.04-.168.044-.226.102-.129.113-.209.271-.224.441-.021.079-.089.157-.089.242a.29.29 0 0 0 .082.155l.022.084c.022.082-.042.205 0 .276a1.09 1.09 0 0 0 .192.186c.022.019.05.031.079.035a.46.46 0 0 0 .123.13 1.02 1.02 0 0 0 .245.092.22.22 0 0 0 .105-.005.45.45 0 0 0 .154.037 1.05 1.05 0 0 0 .256-.038zm-15.964-1.933a1.04 1.04 0 0 0-.244.107c-.032.023-.055.057-.065.095a.33.33 0 0 0-.142.068.78.78 0 0 0-.236.319c-.05.125-.066.26-.049.392.003.057.015.113.036.165-.018.03-.024.064-.019.097.013.036.036.067.067.09.007.051.022.101.046.148.034.042.081.072.134.086a.37.37 0 0 0 .062.086.99.99 0 0 0 .209.131c.072.041.115.17.198.192.053.004.107-.008.153-.035.035.021.074.034.115.036a1.24 1.24 0 0 0 .499-.136c.044-.037.074-.088.087-.144a.83.83 0 0 1 .061-.072.46.46 0 0 1 .084-.06c.061-.017.126-.032.152-.076a1.08 1.08 0 0 0 .112-.242c.005-.041-.006-.082-.029-.115.033-.044.054-.096.06-.151-.011-.071-.037-.14-.076-.202.002-.017.002-.034-.002-.051-.01-.031-.025-.06-.045-.086a.8.8 0 0 0-.063-.144c-.042-.073-.051-.185-.11-.244a.26.26 0 0 0-.166-.039 1.09 1.09 0 0 1-.096-.044c-.072-.042-.121-.159-.204-.181-.045-.011-.097.022-.149.053a.59.59 0 0 1-.118.016c-.086 0-.185-.08-.264-.059zm30.9 1.916a1 1 0 0 0 .252.063 1.04 1.04 0 0 0 .26-.032c.082-.022.136-.117.208-.158s.202-.022.262-.081a.3.3 0 0 0 .057-.158c.038-.008.072-.03.096-.061.041-.079.071-.162.091-.248.009-.048.008-.097-.002-.144a.47.47 0 0 0 .018-.116c-.003-.035-.016-.07-.039-.097a1.12 1.12 0 0 0-.029-.148.22.22 0 0 0-.05-.086c.013-.063.034-.128.007-.173a1.02 1.02 0 0 0-.166-.205c-.064-.061-.167-.064-.24-.106s-.123-.158-.205-.18c-.047-.012-.102.025-.157.057-.032-.026-.07-.041-.111-.044-.054.003-.107.017-.156.04-.032-.014-.067-.018-.101-.012a1.16 1.16 0 0 0-.26.063c-.036.028-.063.068-.075.112l-.097.094c-.024.025-.044.053-.06.083a.28.28 0 0 0-.147.088c-.042.072-.005.187-.027.268-.003.013-.004.027-.004.04a.56.56 0 0 0-.086.206.86.86 0 0 0 .122.512c.042.073.154.103.213.162s.095.162.168.204a.3.3 0 0 0 .178.003c.021.025.049.044.08.054zm.241 7.752a.96.96 0 0 0 .27-.047 1.07 1.07 0 0 0 .254-.078.39.39 0 0 0 .114-.125c.033-.008.063-.024.089-.046.058-.065.108-.138.148-.216.018-.037.025-.078.021-.119l.025-.134a.97.97 0 0 0 .073-.243c.005-.072.005-.144.002-.216.002-.016.001-.031-.002-.046-.015-.055-.085-.086-.143-.121a.23.23 0 0 1-.067-.061c-.042-.073.006-.213-.054-.272-.016-.015-.035-.026-.056-.031-.056-.034-.124-.056-.18-.088-.031-.016-.064-.026-.098-.029-.036-.049-.072-.102-.123-.115-.06-.009-.121-.007-.18.007-.025-.015-.054-.024-.084-.025a1.06 1.06 0 0 0-.264.018.15.15 0 0 0-.073.054.84.84 0 0 0-.161.067 1.02 1.02 0 0 0-.21.154.39.39 0 0 0-.069.176l-.037.061a.96.96 0 0 0-.124.217c-.006.023-.009.048-.013.071a.41.41 0 0 0-.078.179.26.26 0 0 0 .069.141c.004.037.01.074.019.11.02.058.051.112.09.16.008.021.018.041.029.06.006.01.013.02.02.029.026.072.026.168.077.22.059.059.172.063.245.105a.29.29 0 0 0 .076.029.87.87 0 0 0 .157.061c.068.018.137.072.21.088.009.003.017.004.026.005zm8.68-.758a1.05 1.05 0 0 0 .077-.25c-.001-.088-.014-.176-.037-.261a.97.97 0 0 0-.275-.438c-.043-.033-.094-.056-.148-.064-.023-.024-.049-.044-.077-.061-.072-.042-.13-.141-.212-.163-.051-.004-.101.008-.144.035-.04.009-.081.015-.122.017-.087 0-.186-.07-.266-.049-.074.02-.127.101-.19.148-.008.002-.017.005-.025.009a.99.99 0 0 0-.211.139c-.059.059-.163.1-.205.173-.019.046-.025.096-.016.144a.41.41 0 0 0-.055.113.38.38 0 0 0-.005.133c-.024.037-.039.08-.042.125a.55.55 0 0 0 .041.175c-.001.027.001.055.008.083a1.05 1.05 0 0 0 .086.248.37.37 0 0 0 .122.107c.017.029.038.056.061.08a1.04 1.04 0 0 0 .186.189.23.23 0 0 0 .067.022l1.214-.321c.036-.023.068-.053.092-.088a1.01 1.01 0 0 0 .077-.245zm-62.013-14.9a.21.21 0 0 0 .037-.053.68.68 0 0 0 .129-.147.17.17 0 0 0 .013-.105c.046-.034.082-.079.104-.131.028-.085.045-.173.051-.262-.001-.015-.005-.03-.012-.043-.021-.07-.081-.138-.099-.204-.009-.03-.025-.058-.045-.083a.29.29 0 0 0-.006-.172c-.042-.072-.153-.097-.212-.156l-.015-.016c-.047-.065-.062-.179-.129-.218-.081-.038-.167-.065-.255-.082-.052-.005-.105.005-.151.03l-.111-.003a1.02 1.02 0 0 0-.253.008c-.044.016-.084.044-.113.081a.41.41 0 0 0-.084.028l.721 1.774c.083-.009.164-.029.242-.06a1.11 1.11 0 0 0 .189-.186zm46.57 14.831a.66.66 0 0 0 .032-.181c0-.086.05-.187.029-.267a1.08 1.08 0 0 0-.108-.245c-.042-.073-.167-.091-.227-.15s-.083-.173-.157-.215c-.032-.015-.069-.02-.104-.014a.35.35 0 0 0-.138-.099c-.056-.006-.114.004-.165.028a.19.19 0 0 0-.102-.037 2.12 2.12 0 0 0-.5.138 1.09 1.09 0 0 0-.224.141c-.032.043-.05.093-.053.146-.046.004-.088.026-.118.06-.041.071.045.197.026.279l-.001.003-.001.008c-.021.073-.031.148-.031.224-.003.035-.014.07-.031.101l1.787.314a.88.88 0 0 0 .072-.168l.014-.066z"/></g><g stroke="#000" stroke-linejoin="round"><path d="M76.25 28.75s-8 16-40 16c0 40 0 64 40 80 40-16 40-40 40-80-32 0-40-16-40-16z" stroke-width="1.5"/><path d="M76.25 39.55s-6.493 11.268-32.466 11.268c0 32.466 0 51.946 32.466 64.932 32.466-12.986 32.466-32.466 32.466-64.932-25.973 0-32.466-11.268-32.466-11.268z" stroke-width="1.25"/></g><g fill="#0e0e0e"><circle cx="67.574" cy="88.966" r=".75"/><circle cx="73.358" cy="88.966" r=".75"/><circle cx="79.142" cy="88.966" r=".75"/><circle cx="84.926" cy="88.966" r=".75"/></g><g stroke-width="1.5" stroke-linejoin="round" stroke="#0e0e0e"><path d="M66.61 83.182h19.28c3.194 0 5.784 2.59 5.784 5.784h0c0 3.194-2.59 5.784-5.784 5.784H66.61c-3.194 0-5.784-2.59-5.784-5.784h0c0-3.194 2.59-5.784 5.784-5.784zm9.64-5.008c5.73 0 10.375-4.645 10.375-10.375A10.38 10.38 0 0 0 76.25 57.424a10.38 10.38 0 0 0-10.375 10.375c0 5.73 4.645 10.375 10.375 10.375z"/><path d="M70.164 75.931c.575-2.008 3.081-3.52 6.086-3.52s5.511 1.512 6.086 3.52" stroke-linecap="square"/><path d="M76.25 68.952a3.46 3.46 0 0 0 3.458-3.458 3.46 3.46 0 0 0-3.458-3.458 3.46 3.46 0 0 0-3.458 3.458 3.46 3.46 0 0 0 3.458 3.458z"/></g><g filter="url(#A)"><path d="M121.891 99H90.109c-3.098 0-5.609 2.404-5.609 5.368v23.264c0 2.964 2.511 5.368 5.609 5.368h31.782c3.098 0 5.609-2.404 5.609-5.368v-23.264c0-2.964-2.511-5.368-5.609-5.368z" fill="#111"/><path d="M106.5 106.25c-1.928 0-3.813.572-5.417 1.643s-2.853 2.594-3.591 4.376a9.75 9.75 0 0 0 2.114 10.625c1.363 1.364 3.101 2.292 4.992 2.669a9.75 9.75 0 0 0 5.633-.555c1.782-.738 3.304-1.988 4.376-3.591s1.643-3.489 1.643-5.417a9.76 9.76 0 0 0-9.75-9.75zm0 18a8.25 8.25 0 0 1-7.622-5.093 8.25 8.25 0 0 1-.469-4.766c.318-1.601 1.104-3.071 2.257-4.225s2.624-1.939 4.225-2.257 3.259-.155 4.766.469 2.796 1.682 3.703 3.039a8.25 8.25 0 0 1 1.39 4.583c-.003 2.187-.873 4.284-2.419 5.831s-3.644 2.416-5.831 2.419z" fill="#fff"/><path d="M109.97 113.47l-4.47 4.469-2.47-2.469a.75.75 0 0 0-.529-.218c-.199 0-.389.079-.529.22s-.22.33-.22.529a.75.75 0 0 0 .218.529l3 3c.139.14.333.22.53.22s.391-.08.53-.22l5-5a.75.75 0 0 0 .218-.529c0-.199-.079-.389-.22-.529s-.33-.22-.529-.22a.75.75 0 0 0-.529.218z" fill="#fff"/></g><path d="M96.436 28.459c-.609 1.306-2.352 1.712-3.894.905s-2.3-2.517-1.691-3.823 2.351-1.711 3.893-.905 2.3 2.517 1.692 3.823z" fill="#1bdbdb"/><path d="M74.005 18.968c-.002.011-.005.022-.01.032-.062.178-.16.338-.288.47a1.23 1.23 0 0 1-.458.297.79.79 0 0 1-.333-.001.92.92 0 0 1-.32-.136c-.682-.314-.761-.655-.799-1.496.016-.143.063-.277.138-.393a.83.83 0 0 1 .296-.276 1.03 1.03 0 0 1 .475-.105 1.21 1.21 0 0 1 .497.119c.556.27 1.036.636.8 1.488l.002.001zM57.759 35.513c-.002.009-.005.018-.008.026a.92.92 0 0 1-.182.314.81.81 0 0 1-.281.204.45.45 0 0 1-.203.009c-.068-.013-.134-.041-.193-.082-.408-.191-.45-.412-.459-.964a.67.67 0 0 1 .09-.265.58.58 0 0 1 .186-.191.63.63 0 0 1 .291-.081.64.64 0 0 1 .3.067c.317.156.617.392.459.963l.001.001zm47.444-19.246c-.026-.088-.082-.18-.127-.261-.074-.122-.126-.212-.094-.287.007-.013.022-.032.044-.043.012-.068.069-.173.174-.362l.351-.677c.162-.252.179-.329.196-.396.014-.061.034-.121.127-.258.017-.034.016-.217-.084-.336-.093-.105-.237-.128-.434-.065-.007.002-.013.005-.023.004-.278-.014-.344.012-.468.057a2.64 2.64 0 0 1-.304.096c-.229.096-.373.126-.505.156l-.289.076c-.085.012-.171.011-.256-.003-.029-.004-.064-.01-.077.004-.004.009-.013.027-.025.031-.167.099-.431-.026-.531-.15-.06-.072-.069-.152-.033-.214-.022-.172.076-.262.175-.353.05-.041.095-.089.134-.142.013-.015.032-.022.054-.021.008-.006.021 0 .034.007l.007-.002c.043-.022.115-.06.266-.072.15.01.615-.022.812-.191.009-.007.014-.009.021-.011.184-.058.3-.076.412-.096s.224-.033.413-.1c.238-.026.334-.101.345-.155.012-.068-.08-.195-.379-.348-.196-.123-.286-.136-.351-.146-.049-.008-.094-.015-.143-.055-.125-.115-.294-.162-.453-.209-.17-.046-.348-.097-.478-.225a5.82 5.82 0 0 0-.563-.268c-.133-.056-.208-.087-.247-.128a.3.3 0 0 1-.258-.203c-.062-.144-.04-.309.05-.414.027-.152.147-.264.307-.296.144-.03.271.016.329.115.091.055.426.221.791.381.133.055.296.157.485.272l.364.217c.21.062.239.08.298.11.048.024.11.06.292.134.06.041.363.153.537.041s.143-.399.091-.617l-.158-.416c-.152-.396-.22-.58-.137-.662.022-.025.051-.039.083-.039.052-.215.16-.301.236-.359.033-.022.06-.034.062-.061.002-.015.015-.03.028-.034s.032-.012.049-.003c.307.104.453.166.5.264l.013.038c.019.004.037.013.051.025.08.055.173.235.163 1.055.057.456.141.471.141.471s.081.008.222-.34l.078-.255c.068-.234.098-.337.326-.539.22-.651.405-.891.481-.993.015-.019.024-.036.03-.039.031-.15.14-.251.281-.288a.37.37 0 0 1 .337.075c.185.081.327.269.321.432-.004.084-.042.15-.113.185-.037.292-.53 1.589-.699 1.725-.204.284-.268.488-.177.597.109.135.427.11.53.065.334-.134.891-.19 1.226-.227l.255-.029c.074-.054.194-.059.283-.063.015-.02.04-.028.064-.022l.223.047c.198.034.235.057.293.284.063.1.023.204-.022.294.015.067-.006.12-.03.146-.066.09-.218.117-.302.113-.014-.003-.027-.009-.036-.014a1.08 1.08 0 0 1-.202.071c-.111-.001-.212.029-.345.07a3.63 3.63 0 0 1-.562.139c-.106.054-.254.104-.395.151-.186.063-.47.159-.475.236.002.027.043.139.634.351l.288.142.631.334a7.32 7.32 0 0 0 .69.336c.096.042.139.063.16.085a.46.46 0 0 1 .204.264c.032.11.022.229-.028.332a.46.46 0 0 1-.61.206c-.018-.009-.031-.026-.031-.047-.032-.021-.129-.064-.221-.105l-.567-.259c-.138-.068-.361-.158-.599-.248l-.857-.366c-.276-.19-.37-.173-.399-.155-.077.047-.046.266-.028.414l.008.069c.033.138.044.482.05.848s.019.903.072 1.01c.011 0 .02.004.028.008.015.013.028.029.028.051-.009.236-.027.259-.035.277-.004.008-.009.017-.015.019l-.16.162c-.06.068-.084.082-.176.063-.077-.028-.159-.036-.229-.045-.107-.01-.204-.02-.254-.094-.026-.033-.038-.083-.033-.15-.015-.002-.028-.008-.041-.015-.072-.047-.075-.161-.082-.351a3.23 3.23 0 0 0-.084-.727c-.027-.109-.055-.171-.081-.237-.034-.092-.074-.176-.104-.373.005-.28-.062-.373-.1-.381-.054-.011-.151.08-.224.247-.07.186-.674 1.491-.837 1.496-.068.009-.117.054-.166.099-.089.084-.218.203-.41.06-.019.006-.029-.004-.034-.017l.002.001zm-5.708 15.656c-.022-.051-.027-.112-.015-.173s.04-.117.081-.162c.093-.117.193-.228.3-.331l1.912-1.684.135-.117 2.141-1.893c.378-.574.886-1.036 1.464-1.329a4.4 4.4 0 0 0 1.382-1.175.11.11 0 0 1 .02-.023l.42-.37a.84.84 0 0 1 .267-.16c.096-.035.194-.05.29-.043a.62.62 0 0 1 .27.081c.083.048.154.114.209.193a.79.79 0 0 1 .129.411c.005.152-.029.309-.099.451a.95.95 0 0 1-.224.292l-.732.645a39.19 39.19 0 0 0-4.597 3.814l-2.748 2.444c-.018.014-.037.022-.057.023s-.038-.006-.053-.019a1.45 1.45 0 0 1-.269-.416c-.087-.147-.163-.301-.227-.46zM87.169 16.89l-.214.282a2.6 2.6 0 0 0-.453.889 2.43 2.43 0 0 0-.077.972c.001.018-.001.036-.009.053l-.175.411-.247.571-.022.045a.91.91 0 0 1-.442.43.68.68 0 0 1-.559.005c-.171-.079-.301-.229-.361-.422a.89.89 0 0 1 .041-.611l1.615-3.739.164-.367c.006-.002.01-.017.016-.025a9.82 9.82 0 0 0 1.661-3.422c.504-1.494 1.023-3.039 2.312-4.165.013-.011.028-.019.044-.022s.032-.002.045.004a.67.67 0 0 1 .378.42.89.89 0 0 1-.037.622l-1.427 3.305-.095.209-.055.12-1.843 3.907-.261.529zm3.619 12.659l-.087-.109a3 3 0 0 1-.654-1.144h-.001a1.97 1.97 0 0 1-.296-1.333 2.7 2.7 0 0 1 .363-1.146l.12-.249a5.47 5.47 0 0 1 1.063-1.145 2.97 2.97 0 0 1 .882-.59l.102-.05a3.18 3.18 0 0 1 1.276-.241c.532-.046 1.064.11 1.488.435l.45.229a1.54 1.54 0 0 1 .737.542c.004.006.007.013.009.021.062.181.143.354.243.517a4.91 4.91 0 0 1 .348.732 2.13 2.13 0 0 1 .27 1.372l-.061.296a2.91 2.91 0 0 1-.248.838 2.36 2.36 0 0 1-.132.232 5.57 5.57 0 0 1-.879 1.15c-.519.475-.886.678-1.187.656a1.42 1.42 0 0 1-.611.24c-.22.031-.445.011-.655-.06a1.67 1.67 0 0 1-.902-.18 5.66 5.66 0 0 0-.554-.191 1.92 1.92 0 0 1-.826-.572l-.256-.25zm.952-4.099a2.32 2.32 0 0 0-.246.291 2.34 2.34 0 0 0-.202.336c-.003.007-.008.013-.014.019-.729.785-.351 1.335.05 1.916a2.57 2.57 0 0 1 .449.863c.277.266.612.465.979.577a2.83 2.83 0 0 0 .375.089.1.1 0 0 1 .029.01c.462.278 1.034-.049 1.493-.311l.245-.135a3.15 3.15 0 0 0 .28-.255 2.55 2.55 0 0 0 .247-.291 3.16 3.16 0 0 0 .202-.326l.116-.437c.238-.827.532-1.857-.557-2.342-.009-.003-.016-.009-.023-.014a2.81 2.81 0 0 0-.298-.245 2.35 2.35 0 0 0-.338-.202c-.121-.059-.247-.11-.376-.151a1.95 1.95 0 0 0-1.711.181l-.434.177a3.38 3.38 0 0 0-.267.249zm-46.305 2.082l.003.002h-.004l-.069-.041.071.044a1.1 1.1 0 0 0-.067.138.86.86 0 0 1-.128.247.39.39 0 0 0-.088.22l-.007.033a4.08 4.08 0 0 1-.382.781c-.143.245-.266.457-.224.573a.17.17 0 0 1 .002.067 1.84 1.84 0 0 0-.02.271.37.37 0 0 0 .178-.051c.006-.014.014-.026.024-.037s.021-.019.033-.026l.022-.01c.292-.136.572-.318.829-.54l.29-.226a.56.56 0 0 1 .236-.213.39.39 0 0 1 .279-.025.61.61 0 0 1 .407.271.83.83 0 0 1 .12.535.97.97 0 0 1-.075.362 1.01 1.01 0 0 1-.205.314.25.25 0 0 1-.113.077.17.17 0 0 1-.122-.004l-.196.138a1.06 1.06 0 0 1-.727.29v.009l-.189.103a.36.36 0 0 1 .118.064c.017-.001.033.005.047.015s.025.031.028.054c.138-.034.26.083.382.2l.002.002c.22.212.319.249.433.15a.35.35 0 0 1 .049-.084l.121-.137c.014-.017.032-.028.051-.032s.037-.002.053.007.028.023.034.042.007.04.001.061l-.023.09c.058.046.08.049.088.047l.021-.015c.012-.008.025-.013.037-.015s.025-.002.037.003l.022.008a2.2 2.2 0 0 0 .236.071.81.81 0 0 1 .451.203c.126.113.22.266.272.445l.014.136a2.2 2.2 0 0 1 .027.552l-.005.038a.12.12 0 0 1-.011.038.14.14 0 0 1-.025.035c-.01.01-.022.017-.034.022l-.033.013-.485.213a.13.13 0 0 1-.059.007.9.9 0 0 0-.252.011c-.029-.002-.055-.014-.075-.035a.53.53 0 0 0-.369-.17c-.126-.013-.245-.027-.287-.181-.016-.031-.04-.054-.069-.07a.16.16 0 0 0-.097-.017c-.114.001-.218-.042-.298-.121l-.015-.021c-.181-.343-.404-.364-.953-.416-.011-.002-.021-.007-.03-.014a.41.41 0 0 1-.271-.074l-.075-.035.011.104c.088.047.141.078.149.163l.002.028c.001.023-.006.049-.019.071a1.23 1.23 0 0 1 .037.282.68.68 0 0 0 .107.401l.01.022a.59.59 0 0 1 .019.276.45.45 0 0 0 .06.316l.055.095c.009.015.012.033.012.053l-.021.423a.7.7 0 0 1-.1.336.66.66 0 0 1-.245.241c-.118.042-.237.047-.346.012a.49.49 0 0 1-.264-.206.8.8 0 0 1-.078-.215l-.088-.267a.07.07 0 0 1-.056-.008c-.016-.01-.028-.027-.034-.047l-.011-.042a1.64 1.64 0 0 1-.038-.304l-.024-.269c-.182-.101-.185-.415-.188-.671v-.006l-.007-.228.002-.078.001-.03c.007-.1.005-.2-.004-.299a1.14 1.14 0 0 0-.274.421 2.02 2.02 0 0 1-.279.495c-.078.112-.166.239-.163.297v.05c0 .004-.074.37-.25.446l-.365.556a.11.11 0 0 1-.038.032 1.39 1.39 0 0 1-.239.3.51.51 0 0 1-.187.109.36.36 0 0 1-.197.007.37.37 0 0 1-.183-.103.44.44 0 0 1-.109-.194l-.043-.16c-.007-.026.003-.049.01-.082l.308-.584a.46.46 0 0 0-.005-.248l-.01-.042a.11.11 0 0 1 .007-.069c.009-.022.024-.041.044-.054l.006-.004a.71.71 0 0 1 .214-.362 1.22 1.22 0 0 1 .254-.481l.036-.044.015-.074a1.03 1.03 0 0 1 .079-.235.41.41 0 0 0-.289.04 3.19 3.19 0 0 0-.635.261.73.73 0 0 1-.285.105c-.113.097-.638.526-.972.367-.363.082-.493-.378-.572-.657h0l-.049-.16-.005-.029a.32.32 0 0 1 .002-.126.36.36 0 0 1 .05-.121c.059-.076.144-.082.214-.088h.004a.21.21 0 0 0 .102-.025l.034-.017a2.45 2.45 0 0 1 .305-.058 2.26 2.26 0 0 0 .76-.201l.025-.021c.014-.012.03-.018.047-.02a.07.07 0 0 1 .045.009l.024.014a.73.73 0 0 0 .53-.011 1.06 1.06 0 0 0 .47-.374c.027-.105.111-.14.295-.197a.47.47 0 0 1-.234-.144c-.003-.005-.011-.018-.078-.019a2.43 2.43 0 0 1-.604-.299 2.46 2.46 0 0 0-.863-.385c-.34-.061-.639-.238-.862-.509a2.55 2.55 0 0 0-.569-.433l-.015.002c-.015.003-.03.001-.044-.005s-.024-.016-.032-.03l-.014-.025c-.08-.144.068-.667.25-.995l.018-.034a.11.11 0 0 1 .041-.044c.017-.011.035-.015.052-.014l.033.002a2.09 2.09 0 0 1 1.14.44 2.33 2.33 0 0 0 .294.183.89.89 0 0 0 .175.052c.154.015.292.086.394.202a2.15 2.15 0 0 0 1.102.754c.013.008.025.018.034.032a.63.63 0 0 1 .18.079 1.06 1.06 0 0 0 .244.108 1.45 1.45 0 0 0-.094-.455c-.01-.029-.01-.063-.003-.096a4.99 4.99 0 0 0-.331-1.066c-.007-.014-.011-.03-.01-.047l.007-.169c.018-.454.038-.738.2-.876.369-.265.469-.114.636.139l.001.002.125.191c.402.199.473 1.083.459 1.357.05.08.078.086.086.085.02-.003.057-.067.082-.111a1.73 1.73 0 0 0 .228-.6 2.99 2.99 0 0 1 .229-.666l.01-.021a1.32 1.32 0 0 1 .294-.363 1.1 1.1 0 0 1 .381-.216 1.09 1.09 0 0 0 .235-.11l.023-.015c.013-.009.027-.014.04-.015a.08.08 0 0 1 .039.007l.021.01a.4.4 0 0 1 .16.117.48.48 0 0 1 .094.189.88.88 0 0 1-.03.31.96.96 0 0 1-.135.291zm13.92-1.869c.002.008.006.016.01.024l.141.253c.058.084.132.155.218.21a.61.61 0 0 0 .27.092c.093.009.188-.004.278-.039a.71.71 0 0 0 .245-.166.85.85 0 0 0 .172-.265.99.99 0 0 0 .073-.325c.005-.112-.007-.226-.037-.333a.9.9 0 0 0-.141-.289l-.376-.511c-.737-1.041-1.525-2.03-2.361-2.958-1.354-1.442-2.545-3.089-3.544-4.899a.48.48 0 0 0-.155-.238c-.072-.057-.156-.087-.242-.083a.62.62 0 0 0-.402.114c-.121.085-.219.211-.282.363s-.085.322-.067.489a.93.93 0 0 0 .171.45l.643.875.33.435.765 1.056.662.894 2.044 2.776a6.04 6.04 0 0 0 .654.754c.397.339.717.794.929 1.321z" fill="#111"/><defs><filter id="A" x="75.5" y="90" width="61" height="57" filterUnits="userSpaceOnUse" color-interpolation-filters="sRGB"><feFlood flood-opacity="0" result="A"/><feColorMatrix in="SourceAlpha" values="0 0 0 0 0 0 0 0 0 0 0 0 0 0 0 0 0 0 127 0"/><feOffset dy="4.5"/><feGaussianBlur stdDeviation="3"/><feColorMatrix values="0 0 0 0 0.0666667 0 0 0 0 0.0666667 0 0 0 0 0.0666667 0 0 0 0.07 0"/><feBlend in2="A" result="C"/><feColorMatrix in="SourceAlpha" values="0 0 0 0 0 0 0 0 0 0 0 0 0 0 0 0 0 0 127 0"/><feOffset dy="8"/><feGaussianBlur stdDeviation="3"/><feColorMatrix values="0 0 0 0 0.0666667 0 0 0 0 0.0666667 0 0 0 0 0.0666667 0 0 0 0.1 0"/><feBlend in2="C" result="D"/><feColorMatrix in="SourceAlpha" values="0 0 0 0 0 0 0 0 0 0 0 0 0 0 0 0 0 0 127 0"/><feOffset/><feGaussianBlur stdDeviation="4.5"/><feColorMatrix values="0 0 0 0 0.0666667 0 0 0 0 0.0666667 0 0 0 0 0.0666667 0 0 0 0.07 0"/><feBlend in2="D"/><feBlend in="SourceGraphic"/></filter></defs></svg>